<?xml version="1.0" encoding="UTF-8"?>
<svg version="1.1" xmlns="http://www.w3.org/2000/svg" width="1024" height="1024">
<path d="M0 0 C337.92 0 675.84 0 1024 0 C1024 337.92 1024 675.84 1024 1024 C686.08 1024 348.16 1024 0 1024 C0 686.08 0 348.16 0 0 Z " fill="#FDF4ED" transform="translate(0,0)"/>
<path d="M0 0 C8.04672162 6.93682898 12.66521383 14.35562492 17.18701172 23.87353516 C19.7242699 29.07634582 22.01748647 32.25984522 26.8125 35.5625 C34.02835863 37.96778621 41.97849823 37.63500625 49.5234375 37.73828125 C50.69450043 37.75627274 50.69450043 37.75627274 51.88922119 37.77462769 C55.13547061 37.82305767 58.38134766 37.87056439 61.62792969 37.88842773 C85.16376124 38.04233408 85.16376124 38.04233408 92.92529297 44.25317383 C100.78880564 52.3519823 99.21353257 64.13968555 99.17163086 74.57836914 C98.9077481 92.20772464 93.75427198 105.3333067 81.6875 118.3125 C64.78645802 133.99805609 42.15972491 142.7538397 20.8125 150.5625 C23.16480944 173.51608795 38.50491276 194.17143562 53.8125 210.5625 C55.7487339 212.78898528 57.678486 215.02051086 59.59765625 217.26171875 C62.15179583 219.91496074 64.884125 222.28069688 67.66967773 224.68676758 C71.82622167 228.32522344 75.80268549 232.1586718 79.8125 235.95703125 C83.03459713 238.99662679 86.27813063 241.98322163 89.640625 244.8671875 C94.85436156 249.39544257 99.6919394 254.29638851 104.5625 259.1875 C105.49449219 260.115625 106.42648437 261.04375 107.38671875 262 C108.28519531 262.89976562 109.18367188 263.79953125 110.109375 264.7265625 C110.91729492 265.53561035 111.72521484 266.3446582 112.55761719 267.17822266 C118.8125 273.7920366 118.8125 273.7920366 118.8125 276.5625 C142.63940117 262.44912941 142.63940117 262.44912941 158.8125 240.5625 C157.72001953 240.17578125 157.72001953 240.17578125 156.60546875 239.78125 C144.14889909 234.34565597 133.20506934 221.76318814 127.8125 209.5625 C127.4 208.64984375 126.9875 207.7371875 126.5625 206.796875 C122.86171209 197.39070572 121.94276111 186.8349448 124.84765625 177.08984375 C128.73345089 168.52810682 134.76973561 162.22647038 143.25 158.125 C148.75099767 156.1387685 154.41972688 156.03579951 160.21655273 155.97680664 C167.87866107 155.82824785 173.71182061 153.76167196 179.8125 149.0625 C187.73164376 143.31414756 195.43006129 141.62419169 205.17578125 141.38671875 C206.14580078 141.36287109 207.11582031 141.33902344 208.11523438 141.31445312 C210.10981351 141.27173988 212.1046697 141.24035125 214.09960938 141.22070312 C227.26198205 140.84612865 236.2736588 135.36754231 245.2421875 126.03125 C245.8515918 125.4007373 246.46099609 124.77022461 247.08886719 124.12060547 C248.30071599 122.85338164 249.49742092 121.57146123 250.67675781 120.27392578 C253.65525955 117.13601367 255.29420581 115.70650057 259.56640625 114.51953125 C262.8125 114.5625 262.8125 114.5625 265.625 116.625 C273.16878463 126.75522507 273.23822643 143.54568129 271.50927734 155.69287109 C270.919106 159.06914622 270.22203895 162.40163031 269.46875 165.74609375 C267.76081334 175.6785587 269.71597159 181.52701163 274.125 190.5625 C284.83220197 213.62023084 292.48333986 237.70608744 297.25878906 262.68505859 C297.7509688 265.24274396 298.28685524 267.78613796 298.8359375 270.33203125 C306.12087564 306.51481601 297.84958121 343.31984472 287.57128906 377.98730469 C285.98711965 383.36369433 284.46591256 388.75838146 282.93505859 394.15014648 C281.83280191 398.02422209 280.72042124 401.89295026 279.546875 405.74609375 C279.18078125 406.96425781 278.8146875 408.18242188 278.4375 409.4375 C278.12039063 410.46617187 277.80328125 411.49484375 277.4765625 412.5546875 C276.46851004 417.12057215 276.32943232 421.11329697 277.8125 425.5625 C279.60087068 426.38450948 279.60087068 426.38450948 281.875 426.875 C297.99599694 431.36204936 311.06421125 436.80647569 320.625 451.3125 C322.26412212 455.79851844 322.52986382 459.84051175 321.8125 464.5625 C319.68249663 468.21393435 317.68238473 469.99850933 313.8125 471.5625 C304.76581205 472.80094592 295.51585359 472.72154444 286.3984375 472.73046875 C284.57307968 472.73546135 284.57307968 472.73546135 282.71084595 472.74055481 C280.1614011 472.74557521 277.61194979 472.74796467 275.0625 472.74780273 C271.18999384 472.74999859 267.31776884 472.7682325 263.4453125 472.78710938 C260.95052179 472.79004259 258.45572975 472.79202787 255.9609375 472.79296875 C254.24951065 472.80374702 254.24951065 472.80374702 252.50350952 472.81474304 C233.67458648 472.76184357 233.67458648 472.76184357 228.57382202 468.84220886 C217.08667526 456.8275271 216.26076894 439.01596071 216.4375 423.3125 C216.44148804 422.59381744 216.44547607 421.87513489 216.44958496 421.13467407 C216.50492584 412.62577788 216.71225405 404.16875644 218.0625 395.75 C218.17158691 395.05293945 218.28067383 394.35587891 218.39306641 393.63769531 C219.20204752 389.49630574 220.45973487 387.1425326 223.8125 384.5625 C226.65691042 384.07686895 228.10005792 384.16942851 230.625 385.5625 C232.88873445 389.37510539 232.11943686 393.96052741 231.31469727 398.16064453 C230.71758932 402.20541952 230.61281876 406.13987005 230.57421875 410.22265625 C230.566147 411.04898056 230.55807526 411.87530487 230.54975891 412.72666931 C230.53597673 414.47229961 230.52522856 416.21795619 230.51733398 417.96362305 C230.50585909 419.72542379 230.48547906 421.48719101 230.45581055 423.2487793 C230.27802092 433.82974543 230.27115326 443.7427293 234.8125 453.5625 C235.04969254 454.25546173 235.28688507 454.94842346 235.53126526 455.66238403 C236.67619457 458.27108876 237.61071477 459.73177908 239.8125 461.5625 C244.91095691 462.77420347 249.97185794 462.63456101 255.17578125 462.5625 C256.693233 462.57002181 258.21067106 462.58105867 259.72807312 462.59545898 C263.7119524 462.62385572 267.69422205 462.60462935 271.67803955 462.57537842 C275.74705447 462.55396308 279.8157803 462.57772844 283.88476562 462.59765625 C291.8610852 462.63007912 299.83627119 462.61217857 307.8125 462.5625 C307.51730469 461.29905762 307.22210937 460.03561523 306.91796875 458.73388672 C306.75192139 458.02320038 306.58587402 457.31251404 306.41479492 456.58029175 C304.88415875 451.4523969 301.27442522 448.91307181 296.73608398 446.43066406 C296.10130127 446.10291992 295.46651855 445.77517578 294.8125 445.4375 C294.15258057 445.08913086 293.49266113 444.74076172 292.81274414 444.38183594 C287.78540529 441.82730614 282.86090995 440.36622318 277.33984375 439.1953125 C271.5808308 437.75333399 268.15998375 434.27377342 264.8125 429.5625 C257.40885282 414.75520564 267.98004103 390.05408167 272.43554688 375.56787109 C276.05083554 363.69399361 279.02888651 351.65561857 281.8125 339.5625 C282.04275879 338.5631543 282.27301758 337.56380859 282.51025391 336.53417969 C289.84661014 303.51775277 285.52329022 269.64050215 275.8125 237.5625 C275.60093262 236.84545898 275.38936523 236.12841797 275.17138672 235.38964844 C273.05557616 228.23214523 270.79229403 221.1881598 267.8984375 214.30078125 C267.02565555 212.09998935 266.23413976 209.90917934 265.4765625 207.66796875 C264.98470605 206.21603364 264.49250861 204.76421402 264 203.3125 C263.7525 202.58232666 263.505 201.85215332 263.25 201.09985352 C261.11026572 194.9879673 258.29211081 189.49355209 255.03515625 183.90625 C252.45244737 176.84299505 255.15968343 169.9979225 257.375 163.125 C260.31761252 153.36791638 261.98691744 141.50206937 258.8125 131.5625 C255.80383649 132.89751303 253.89590542 134.32519304 251.6875 136.75 C247.52441315 141.01983267 242.93827072 144.51685507 237.8125 147.5625 C237.22718506 147.92134277 236.64187012 148.28018555 236.03881836 148.64990234 C229.33538261 152.23172161 222.65881333 151.93553124 215.25543213 151.83337402 C202.41657292 151.70757858 193.19679358 152.39352238 182.8125 160.5625 C180.98475287 161.59013895 179.13139755 162.57423295 177.25 163.5 C176.13431641 164.07041016 176.13431641 164.07041016 174.99609375 164.65234375 C169.51996398 166.93488084 163.71792754 166.83745088 157.87109375 166.9921875 C150.10684834 167.34712443 144.45123484 170.05191822 138.8125 175.5625 C134.31077108 183.03322633 134.58594342 191.45184759 136.5859375 199.78515625 C142.46555067 215.61007255 155.47426461 225.37425683 169.6875 233.3125 C172.8125 235.5625 172.8125 235.5625 173.5625 238.3125 C169.09608269 257.66697499 153.53417543 270.96530833 137.8125 281.5625 C134.85319878 283.37074582 131.90512361 284.98905992 128.8125 286.5625 C130.39407844 291.00962647 132.73758074 294.86947033 135.1875 298.875 C143.60080448 312.93471259 151.74140995 327.71534359 156.75 343.3671875 C157.63776542 346.03701145 158.63250107 348.57312713 159.7109375 351.16796875 C162.06626434 356.99407378 163.77209782 362.94633677 165.4375 369 C165.88609375 370.58264648 165.88609375 370.58264648 166.34375 372.19726562 C168.22009486 378.94297447 169.6497538 385.66153448 170.8125 392.5625 C171.08083739 393.98509666 171.35269142 395.40703684 171.62890625 396.828125 C171.87776293 398.15622026 172.12646401 399.48434469 172.375 400.8125 C172.50068359 401.44800781 172.62636719 402.08351563 172.75585938 402.73828125 C175.03946179 415.14864412 174.99384458 427.92448614 175 440.5 C175.01219389 441.85742347 175.0245633 443.21484537 175.03710938 444.57226562 C175.05948156 459.67349345 175.05948156 459.67349345 171.1875 466.375 C164.26355648 472.7523164 155.45266135 471.99311442 146.61303711 471.95068359 C145.1848053 471.95475441 143.75657664 471.96009914 142.32835388 471.96661377 C138.46889725 471.98023148 134.60968256 471.97501216 130.75022197 471.96547651 C126.7016034 471.95785251 122.6530048 471.96493298 118.60438538 471.96963501 C111.80807801 471.97508398 105.01186864 471.96792289 98.21557617 471.95361328 C90.36860239 471.93728181 82.52186241 471.94258227 74.67489427 471.9590925 C67.9247653 471.97272404 61.17470653 471.97461908 54.42456824 471.96677649 C50.39857087 471.96210997 46.37268327 471.96144705 42.34669304 471.97138596 C38.56185695 471.98007794 34.77732125 471.97399331 30.99251747 471.95670319 C29.6070442 471.95275049 28.22154546 471.95385148 26.83608246 471.96049118 C12.37457666 472.02338574 12.37457666 472.02338574 6 467.1875 C3.09565402 463.21313181 2.55736248 459.37561046 2.546875 454.546875 C2.54046997 452.80651978 2.54046997 452.80651978 2.53393555 451.03100586 C2.54336182 449.80389893 2.55278809 448.57679199 2.5625 447.3125 C2.56999268 446.04994385 2.57748535 444.7873877 2.58520508 443.48657227 C3.13665654 395.39938866 25.087779 352.73670102 59.01953125 319.3828125 C70.57598945 308.25325519 83.33833393 298.7687271 96.625 289.8125 C97.38393555 289.29872803 98.14287109 288.78495605 98.92480469 288.25561523 C99.63668945 287.78454346 100.34857422 287.31347168 101.08203125 286.828125 C101.70698486 286.41336914 102.33193848 285.99861328 102.97583008 285.57128906 C104.90883492 284.50958814 106.65873407 283.99938385 108.8125 283.5625 C104.97289025 278.41578906 101.04901762 273.63500036 96.42578125 269.17578125 C94.8125 267.5625 94.8125 267.5625 92.375 264.5625 C89.87820357 261.63942125 87.29824976 259.29561006 84.3828125 256.8125 C80.30760167 253.24514219 76.38431005 249.51575076 72.44384766 245.80078125 C69.2929388 242.84030737 66.11156329 239.93616622 62.83984375 237.109375 C52.246715 227.89527901 42.29441064 217.7579394 33.8125 206.5625 C33.14089844 205.69625 32.46929687 204.83 31.77734375 203.9375 C19.30007828 187.39730993 8.97028913 167.98059569 8.21875 146.9375 C9.12044024 143.33073905 10.65756985 142.51008548 13.8125 140.5625 C17.19369962 139.14056284 20.64880667 137.97903767 24.125 136.8125 C33.15621969 133.65358137 41.6764451 130.06977443 50.08105469 125.50195312 C51.72283846 124.61114884 53.38059802 123.74997463 55.0390625 122.890625 C70.09516135 114.72064888 80.1613864 103.56272946 85.32397461 87.09472656 C86.82795854 81.61058625 87.27783855 76.2999741 87.3125 70.625 C87.31878418 69.85679932 87.32506836 69.08859863 87.33154297 68.29711914 C87.19453729 62.13518887 86.28555612 55.20042652 81.9375 50.5625 C76.73054014 48.11216595 71.15931137 48.38494128 65.5234375 48.31640625 C63.67577688 48.28344742 61.82812074 48.25023614 59.98046875 48.21679688 C57.09101649 48.16960917 54.20157967 48.12519246 51.31201172 48.08569336 C24.10522522 47.6960918 24.10522522 47.6960918 15.8125 42.5625 C14.966875 42.046875 14.12125 41.53125 13.25 41 C8.95330581 36.70330581 6.81128404 31.183882 4.66796875 25.55859375 C1.02457231 16.01752548 -3.29343977 8.94885582 -12.8125 4.5 C-31.95910987 -1.94164174 -54.38966374 3.33684751 -72.1875 11.5625 C-78.36166888 14.92820217 -83.94447416 18.88628777 -89.1875 23.5625 C-87.04096491 25.76866107 -84.79125315 27.76813984 -82.4375 29.75 C-57.16249742 51.93481066 -42.80129702 93.7201095 -40.1875 126.5625 C-39.97575866 131.04261132 -39.89716442 135.51518755 -39.875 140 C-39.86936035 141.07797852 -39.8637207 142.15595703 -39.85791016 143.26660156 C-39.9618274 154.6904526 -40.95952485 165.55032857 -48.6875 174.4375 C-51.97870127 177.23502108 -53.84330243 178.5625 -58.1875 178.5625 C-58.1875 179.2225 -58.1875 179.8825 -58.1875 180.5625 C-77.21973196 181.37430136 -91.58796681 176.81418765 -106 163.8125 C-111.49189839 158.66912748 -115.61598362 153.21358836 -119.1875 146.5625 C-119.64511719 145.75296875 -120.10273438 144.9434375 -120.57421875 144.109375 C-125.13655273 135.61493937 -128.29223263 126.18662419 -129.1875 116.5625 C-129.5175 116.5625 -129.8475 116.5625 -130.1875 116.5625 C-142.96108732 185.23185596 -137.60781065 256.89062161 -118.53515625 323.765625 C-117.48185222 327.47414957 -116.4817939 331.1948167 -115.49609375 334.921875 C-112.76951431 345.22690518 -110.01273543 355.42832195 -106.515625 365.5 C-104.61598381 371.14532868 -103.04687193 376.89181736 -101.4375 382.625 C-100.97827148 384.25127319 -100.97827148 384.25127319 -100.50976562 385.91040039 C-100.22294922 386.94156982 -99.93613281 387.97273926 -99.640625 389.03515625 C-99.25632324 390.41586304 -99.25632324 390.41586304 -98.86425781 391.82446289 C-96.71119547 400.53535544 -94.67659387 411.43326905 -99.5 419.5 C-105.10827926 426.5593725 -113.01482843 430.16641028 -121.1875 433.5 C-128.9930792 436.72516239 -137.21121138 440.82618905 -141.875 448.1875 C-143.23365057 451.68117289 -143.77589228 453.86403424 -143.1875 457.5625 C-142.13586127 459.3404047 -142.13586127 459.3404047 -140.1875 460.5625 C-137.05871021 461.02073889 -137.05871021 461.02073889 -133.42456055 460.95068359 C-132.74125671 460.95594055 -132.05795288 460.96119751 -131.35394287 460.96661377 C-129.09380256 460.97982254 -126.83436632 460.97107023 -124.57421875 460.9609375 C-123.00104131 460.9629587 -121.42786479 460.96587052 -119.85469055 460.96963501 C-116.55513603 460.97406011 -113.25582504 460.9676241 -109.95629883 460.95361328 C-105.7362018 460.9365632 -101.51667893 460.94633449 -97.2966032 460.96433067 C-94.04598205 460.97519963 -90.79549571 460.97170723 -87.54487038 460.9639473 C-85.98961125 460.96195168 -84.43433972 460.96438206 -82.87909508 460.97138596 C-80.69861101 460.97904724 -78.51903957 460.96733043 -76.33862305 460.95068359 C-75.09968796 460.94829681 -73.86075287 460.94591003 -72.58427429 460.94345093 C-68.83405088 460.5228604 -66.40476933 459.50182693 -63.1875 457.5625 C-58.71468865 450.94000946 -58.76326943 440.54207768 -57.625 432.75 C-57.41546867 431.35079817 -57.20518644 429.95170857 -56.99414062 428.55273438 C-56.68354249 426.49326263 -56.37344387 424.4337348 -56.06637573 422.37373352 C-55.31246631 417.32718364 -54.49191797 412.2943652 -53.64086914 407.26342773 C-52.82703973 402.41507301 -52.08203971 397.55583693 -51.33203125 392.69726562 C-50.69995962 388.64996826 -50.01479808 384.62206063 -49.25 380.59765625 C-47.78417008 372.62825108 -46.77007926 364.59094709 -45.6875 356.5625 C-41.92438838 328.6551276 -41.92438838 328.6551276 -39.375 324.875 C-36.68286464 323.25971878 -35.27432216 323.008455 -32.1875 323.5625 C-30.01789195 325.19159576 -29.2682379 326.06212294 -28.83149719 328.7688446 C-28.99828447 336.46644511 -29.87575762 343.96621454 -30.98046875 351.58203125 C-31.17082975 352.92925797 -31.36062013 354.27656543 -31.54988098 355.62394714 C-31.94790555 358.44603544 -32.35096407 361.26734054 -32.75805664 364.08813477 C-33.26529573 367.60376099 -33.76291627 371.12065514 -34.25704956 374.63814449 C-37.51341221 397.79312104 -41.31750267 420.83589552 -45.3125 443.875 C-45.46875351 444.77623596 -45.62500702 445.67747192 -45.78599548 446.60601807 C-48.59921839 462.54967703 -48.59921839 462.54967703 -55.1875 467.5625 C-63.5572375 473.23232479 -73.54043738 472.12449175 -83.1953125 472.05859375 C-85.04898129 472.05874893 -86.9026504 472.06024109 -88.75631714 472.06300354 C-92.62789374 472.06438312 -96.49909789 472.05190117 -100.37060547 472.02905273 C-105.32131707 472.00062964 -110.27141237 472.00342216 -115.22216988 472.01614285 C-119.04500553 472.02311164 -122.86769983 472.01529768 -126.69051743 472.00288582 C-128.51567924 471.9983858 -130.3408563 471.99802179 -132.16601944 472.00195122 C-134.71922976 472.0048763 -137.27160281 471.98829655 -139.82470703 471.96655273 C-140.57086273 471.97105438 -141.31701843 471.97555603 -142.08578491 471.98019409 C-147.23644778 471.90766772 -150.69664366 470.91273621 -155.1875 468.5625 C-158.77558294 464.1729805 -158.75221304 460.16809253 -158.59765625 454.69140625 C-157.365386 445.29094461 -151.13122433 437.78002754 -144.11328125 431.79296875 C-138.27700392 427.40337477 -131.92239942 424.38179159 -125.25244141 421.49023438 C-120.23185321 419.26608478 -114.75342617 416.69435234 -112.1875 411.5625 C-111.62247078 404.45459618 -113.3880297 398.56060631 -115.5 391.8125 C-116.12347502 389.77676945 -116.74457132 387.74030884 -117.36328125 385.703125 C-117.67056152 384.6915332 -117.9778418 383.67994141 -118.29443359 382.63769531 C-119.47353476 378.57756457 -120.47540049 374.48229139 -121.47924805 370.37597656 C-122.50199139 366.31320709 -123.70709096 362.31630607 -124.9375 358.3125 C-125.46517519 356.56129775 -125.99250435 354.80999121 -126.51953125 353.05859375 C-127.34807921 350.31748499 -128.18246337 347.57869809 -129.03271484 344.84423828 C-136.46467086 320.94214991 -141.80233418 296.36634494 -145.1875 271.5625 C-145.45564677 269.6458218 -145.72388094 267.72915583 -145.9921875 265.8125 C-146.63390084 261.18725672 -147.26734391 256.56110028 -147.87426758 251.93115234 C-148.14988319 249.84695699 -148.44272631 247.76505514 -148.73828125 245.68359375 C-154.86168747 195.86531027 -148.82046929 143.3880618 -138.1875 94.5625 C-138.00783691 93.73508301 -137.82817383 92.90766602 -137.64306641 92.05517578 C-132.33740812 68.3826488 -124.00029996 44.27608205 -108.1875 25.5625 C-107.36958984 24.49322266 -107.36958984 24.49322266 -106.53515625 23.40234375 C-94.12442226 8.00434337 -74.00358364 -1.0212668 -55.1875 -5.4375 C-54.45120361 -5.61410156 -53.71490723 -5.79070312 -52.95629883 -5.97265625 C-36.71884697 -9.58779313 -14.15030863 -10.24677522 0 0 Z " fill="#652520" transform="translate(440.1875,248.4375)"/>
<path d="M0 0 C16.25384949 15.25847686 25.46184155 44.20691923 32 65 C32.39179443 66.19979492 32.39179443 66.19979492 32.79150391 67.42382812 C40.94264431 92.5367919 44.19548225 118.71082841 44.13037109 145.03076172 C44.12493855 147.65467922 44.13038433 150.27843095 44.13671875 152.90234375 C44.13605915 154.57291704 44.13478044 156.24349024 44.1328125 157.9140625 C44.13483673 158.69729889 44.13686096 159.48053528 44.13894653 160.2875061 C44.11500758 165.76998484 44.11500758 165.76998484 43 168 C-3.53 168 -50.06 168 -98 168 C-98 129.78257934 -98 129.78257934 -94 116 C-93.73687012 115.06816895 -93.47374023 114.13633789 -93.20263672 113.17626953 C-78.85367048 63.53550517 -43.35386212 26.49402685 0 0 Z " fill="#FCF2EB" transform="translate(556,542)"/>
<path d="M0 0 C13.0667442 4.3555814 19.96405896 19.39558719 25.875 30.9375 C38.89176003 57.24454901 50.77684344 95.05214359 42.0625 124.3125 C40.53196955 128.60176436 38.62304457 130.81693354 34.75 133.25 C25.17002371 134.95757113 17.00453605 132.58574479 8.96875 127.484375 C-4.19220747 118.30062996 -13.50287659 107.22939677 -18.1875 91.75 C-18.48660278 90.77365601 -18.48660278 90.77365601 -18.79174805 89.77758789 C-21.80747416 78.79335963 -21.4315096 67.04789412 -21.4375 55.75 C-21.44974609 54.53441406 -21.46199219 53.31882812 -21.47460938 52.06640625 C-21.50367436 33.9104769 -18.55461898 15.34728198 -5.8125 1.625 C-3.25 0.25 -3.25 0.25 0 0 Z " fill="#FCF2EA" transform="translate(344.25,283.75)"/>
<path d="M0 0 C0.33 0 0.66 0 1 0 C0.66668516 10.34425366 0.10553778 20.0388411 -3 30 C-3.66 30 -4.32 30 -5 30 C-4.25826663 23.44151546 -3.14229492 16.9880122 -1.9375 10.5 C-1.75123047 9.48679687 -1.56496094 8.47359375 -1.37304688 7.4296875 C-0.91738299 4.95274538 -0.4596565 2.47620374 0 0 Z " fill="#8E494A" transform="translate(725,570)"/>
<path d="M0 0 C0.33 0 0.66 0 1 0 C2.09692266 5.71473691 1.8083698 10.68827998 1.0625 16.4375 C0.96259766 17.26443359 0.86269531 18.09136719 0.75976562 18.94335938 C0.51457838 20.96323529 0.25841833 22.98177418 0 25 C-0.33 25 -0.66 25 -1 25 C-1.0271045 21.95827281 -1.04688964 18.91679003 -1.0625 15.875 C-1.07087891 15.0190625 -1.07925781 14.163125 -1.08789062 13.28125 C-1.10538306 8.73321589 -0.93192358 4.47616836 0 0 Z " fill="#762728" transform="translate(705,651)"/>
<path d="M0 0 C2 4 2 4 1.5390625 6.140625 C1.23742187 6.83671875 0.93578125 7.5328125 0.625 8.25 C0.32851563 8.95640625 0.03203125 9.6628125 -0.2734375 10.390625 C-0.51320313 10.92171875 -0.75296875 11.4528125 -1 12 C-1.66 12 -2.32 12 -3 12 C-2.01 8.04 -1.02 4.08 0 0 Z " fill="#8C3F3F" transform="translate(698,410)"/>
<path d="M0 0 C0.33 0 0.66 0 1 0 C2.12029814 5.48946087 1.79217969 8.83430559 0 14 C-0.33 14 -0.66 14 -1 14 C-1.08333357 9.1666528 -0.95261487 4.76307437 0 0 Z " fill="#914E4E" transform="translate(705,651)"/>
<path d="M0 0 C0.33 0 0.66 0 1 0 C1.33 2.97 1.66 5.94 2 9 C1.01 9 0.02 9 -1 9 C-0.67 6.03 -0.34 3.06 0 0 Z " fill="#E8D9D0" transform="translate(310,360)"/>
</svg>
