<?xml version="1.0" encoding="UTF-8"?>
<svg version="1.1" xmlns="http://www.w3.org/2000/svg" width="500" height="500">
<path d="M0 0 C4.34154089 2.98712856 6.66076468 6.77649284 8.828125 11.4453125 C10.52965951 15.04049025 12.07161804 16.66129704 15.828125 18.2578125 C19.00773922 19.225967 21.94097247 19.40719108 25.2578125 19.46875 C26.82208984 19.51128906 26.82208984 19.51128906 28.41796875 19.5546875 C30.60009246 19.60658105 32.78240982 19.65090829 34.96484375 19.6875 C45.31203149 19.99370531 45.31203149 19.99370531 49.828125 23.2578125 C53.35391042 27.97584328 52.34184915 34.70082081 51.828125 40.2578125 C49.09003357 51.53479729 43.52253061 57.27245434 33.828125 63.2578125 C28.35722233 66.27752456 22.73585379 68.50102768 16.828125 70.5078125 C16.05339844 70.7759375 15.27867187 71.0440625 14.48046875 71.3203125 C12.59803549 71.97103017 10.71331775 72.61513315 8.828125 73.2578125 C10.74921182 90.83139081 24.32083473 104.7651542 36.828125 116.2578125 C37.488125 116.5878125 38.148125 116.9178125 38.828125 117.2578125 C38.828125 117.9178125 38.828125 118.5778125 38.828125 119.2578125 C39.70210937 119.64453125 39.70210937 119.64453125 40.59375 120.0390625 C43.0084153 121.35615267 44.64552677 122.80869634 46.578125 124.7578125 C47.19171875 125.36625 47.8053125 125.9746875 48.4375 126.6015625 C49.828125 128.2578125 49.828125 128.2578125 49.828125 130.2578125 C50.488125 130.2578125 51.148125 130.2578125 51.828125 130.2578125 C51.828125 130.9178125 51.828125 131.5778125 51.828125 132.2578125 C52.488125 132.2578125 53.148125 132.2578125 53.828125 132.2578125 C55.453125 134.2578125 55.453125 134.2578125 56.828125 136.2578125 C55.33280995 140.2453193 53.11257787 141.61618968 49.515625 143.7578125 C46.5390807 145.54455123 43.79500944 147.28472185 41.09765625 149.4765625 C38.828125 151.2578125 38.828125 151.2578125 36.828125 151.2578125 C36.828125 151.9178125 36.828125 152.5778125 36.828125 153.2578125 C35.44375438 154.34203197 34.01782121 155.37321421 32.578125 156.3828125 C16.31216886 169.09059073 6.01115726 190.13225964 2.828125 210.2578125 C2.61055661 213.88898861 2.63636426 217.49691967 2.703125 221.1328125 C2.71214844 222.06867188 2.72117187 223.00453125 2.73046875 223.96875 C2.74778012 225.6899946 2.76923108 227.41120678 2.79638672 229.13232422 C2.82189602 230.84066262 2.828125 232.54928365 2.828125 234.2578125 C-7.071875 234.2578125 -16.971875 234.2578125 -27.171875 234.2578125 C-26.181875 231.2878125 -25.191875 228.3178125 -24.171875 225.2578125 C-23.23372121 221.61968389 -22.51947592 217.94449053 -21.796875 214.2578125 C-21.58844971 213.20561523 -21.38002441 212.15341797 -21.1652832 211.06933594 C-19.33636147 201.58381135 -17.81247617 192.0566879 -16.359375 182.5078125 C-16.19287445 181.42113281 -16.19287445 181.42113281 -16.02301025 180.3125 C-15.70701321 178.23768263 -15.39710115 176.16206538 -15.08984375 174.0859375 C-14.91219482 172.8887207 -14.7345459 171.69150391 -14.55151367 170.45800781 C-14.22201899 167.68050536 -14.09461924 165.0495398 -14.171875 162.2578125 C-15.161875 162.2578125 -16.151875 162.2578125 -17.171875 162.2578125 C-17.30078125 163.4953125 -17.4296875 164.7328125 -17.5625 166.0078125 C-19.24106547 181.05621065 -21.81626736 196.03022204 -24.734375 210.8828125 C-24.93192383 211.90632812 -25.12947266 212.92984375 -25.33300781 213.984375 C-28.26038989 228.49107237 -28.26038989 228.49107237 -31.92578125 231.87890625 C-32.82103516 232.28302734 -32.82103516 232.28302734 -33.734375 232.6953125 C-35.55846342 233.5244436 -37.3797239 234.36173695 -39.171875 235.2578125 C-41.66683663 235.38079963 -44.13282317 235.4461569 -46.62890625 235.4609375 C-47.36888351 235.46663757 -48.10886078 235.47233765 -48.8712616 235.47821045 C-50.43898081 235.48766268 -52.00671991 235.49419532 -53.57446289 235.49804688 C-55.96471207 235.50773282 -58.35409405 235.53874445 -60.74414062 235.5703125 C-62.26822407 235.57684473 -63.79231365 235.58209434 -65.31640625 235.5859375 C-66.02803421 235.5982843 -66.73966217 235.6106311 -67.47285461 235.62335205 C-71.86650618 235.60378488 -74.73093479 235.05395589 -78.171875 232.2578125 C-79.51979922 228.05546052 -79.59413744 226.10233737 -77.609375 222.1328125 C-72.58285007 216.20409079 -67.46244477 212.86783648 -60.171875 210.2578125 C-59.511875 210.2578125 -58.851875 210.2578125 -58.171875 210.2578125 C-58.171875 209.5978125 -58.171875 208.9378125 -58.171875 208.2578125 C-57.511875 208.2578125 -56.851875 208.2578125 -56.171875 208.2578125 C-53.77500069 195.83764561 -58.17809153 183.94434201 -61.8293457 172.17260742 C-65.99367296 158.56208384 -69.37605944 144.39010014 -71.171875 130.2578125 C-71.25800049 129.608125 -71.34412598 128.9584375 -71.43286133 128.2890625 C-72.39366893 120.1303258 -72.37142655 111.96000719 -72.359375 103.7578125 C-72.35877075 103.00081055 -72.3581665 102.24380859 -72.35754395 101.46386719 C-72.31909417 83.73570591 -70.36390828 67.47363848 -66.171875 50.2578125 C-65.511875 50.2578125 -64.851875 50.2578125 -64.171875 50.2578125 C-63.89214844 51.35738281 -63.61242187 52.45695312 -63.32421875 53.58984375 C-59.84003709 66.67702313 -55.2487396 78.34876873 -43.046875 85.50390625 C-36.97066687 88.55255929 -31.63170631 88.97329346 -24.98046875 87.90625 C-24.38363281 87.69226563 -23.78679687 87.47828125 -23.171875 87.2578125 C-21.95039479 84.5130554 -21.95039479 84.5130554 -21.171875 81.2578125 C-20.65753906 79.89462891 -20.65753906 79.89462891 -20.1328125 78.50390625 C-17.48188894 69.54895716 -18.86302096 59.16969498 -21.171875 50.2578125 C-21.34332031 49.43539062 -21.51476562 48.61296875 -21.69140625 47.765625 C-24.6491698 34.90412416 -31.43110062 19.7815829 -42.91015625 12.52734375 C-44.02970703 11.89892578 -44.02970703 11.89892578 -45.171875 11.2578125 C-44.82274655 8.55788584 -44.44574428 7.4918888 -42.34375 5.6953125 C-29.93826615 -1.66794243 -13.72008939 -7.26656586 0 0 Z " fill="#FD8E05" transform="translate(213.171875,119.7421875)"/>
<path d="M0 0 C4.66785443 5.66810895 4.32854388 13.01212442 4 20 C3.67329097 22.00109278 3.34022786 24.00116131 3 26 C2.53409833 31.33669189 3.18648494 34.44950264 6 39 C20.03910859 70.9140392 21.45948514 103.05065361 10.10546875 135.78515625 C7.79179192 142.5136228 5.66544333 148.99633 8 156 C10.5939355 156.88851059 10.5939355 156.88851059 13.6875 157.4375 C20.88100737 159.08441213 25.94417926 161.60428268 30 168 C30.5 170.625 30.5 170.625 30 173 C24.94245697 177.883145 18.95432339 177.24782775 12.375 177.3125 C11.41464844 177.34150391 10.45429688 177.37050781 9.46484375 177.40039062 C2.91986279 177.45811434 -2.40628446 176.561109 -8 173 C-14.50037971 166.50444038 -15.15813337 158.85932469 -15.1875 150.0625 C-15.1482984 144.31714019 -14.81267747 138.68874227 -14 133 C-14.99 132.67 -15.98 132.34 -17 132 C-18.6911246 143.810596 -20.56094203 159.01542314 -15 170 C-14.47019531 170.70125 -13.94039063 171.4025 -13.39453125 172.125 C-12 174 -12 174 -12 176 C-22.23 176 -32.46 176 -43 176 C-42.505 173.03 -42.505 173.03 -42 170 C-39.28973208 138.49868925 -52.05547453 108.30846703 -68 82 C-64.78291084 78.67567454 -61.4209879 75.60862236 -57.9375 72.5625 C-54.25700821 69.27144922 -51.33483963 66.35129203 -49 62 C-49 61.34 -49 60.68 -49 60 C-51.31 58.68 -53.62 57.36 -56 56 C-56 55.34 -56 54.68 -56 54 C-56.87978516 53.61714844 -56.87978516 53.61714844 -57.77734375 53.2265625 C-63.42385303 50.11056265 -67.69963448 44.17359346 -69.62890625 38.07421875 C-70.59399646 32.67987244 -69.7223784 28.37002799 -67.1875 23.5625 C-65.02736102 21.03205148 -64.01972935 20.16841118 -61 19 C-59.14947724 18.85701756 -57.29330149 18.77965329 -55.4375 18.75 C-49.43999238 18.36827369 -45.439946 16.51044276 -40.375 13.375 C-34.72774904 10.10553892 -29.08779787 11.08138747 -22.7265625 11.35546875 C-15.86832667 10.70127644 -11.7562643 5.99382782 -7.02734375 1.390625 C-4.48107807 -0.35594645 -3.02814426 -0.43044695 0 0 Z " fill="#F1422A" transform="translate(345,178)"/>
<path d="M0 0 C2.18803102 1.4009695 3.06366523 2.48068426 4.36938477 4.70385742 C4.77705078 5.39189453 5.1847168 6.07993164 5.60473633 6.78881836 C6.02464844 7.5290625 6.44456055 8.26930664 6.87719727 9.03198242 C7.31773437 9.80058594 7.75827148 10.56918945 8.2121582 11.36108398 C19.65255762 31.66127839 25.95456748 54.05639617 26.37719727 77.34448242 C26.40346191 78.26229492 26.42972656 79.18010742 26.45678711 80.12573242 C26.47248381 86.62658308 26.47248381 86.62658308 24.16625977 89.84057617 C20.32546816 92.39879296 17.17139211 92.41236277 12.66650391 92.42724609 C11.35827164 92.43362595 10.05003937 92.4400058 8.7021637 92.44657898 C7.27222734 92.44810763 5.8422905 92.4492216 4.41235352 92.44995117 C2.94648709 92.45316455 1.48062099 92.45652869 0.01475525 92.46003723 C-3.0577163 92.46602478 -6.13015974 92.4678775 -9.20263672 92.46728516 C-13.13807198 92.46718351 -17.07332693 92.48083983 -21.00871944 92.49805737 C-24.036187 92.5091796 -27.06361098 92.5112043 -30.09109688 92.51067543 C-31.54195337 92.51185505 -32.99281101 92.51627583 -34.44364738 92.5240078 C-36.47331288 92.5338124 -38.50303125 92.52966417 -40.53271484 92.52490234 C-41.68726669 92.52632736 -42.84181854 92.52775238 -44.03135681 92.52922058 C-46.95779949 92.28531649 -48.5833145 91.91186728 -50.99780273 90.28198242 C-55.76930433 83.03440093 -54.0889404 74.29146425 -52.60913086 66.14135742 C-49.64913606 51.93338239 -44.57436715 37.47674747 -34.99780273 26.28198242 C-34.33780273 26.28198242 -33.67780273 26.28198242 -32.99780273 26.28198242 C-32.75545898 25.71737305 -32.51311523 25.15276367 -32.26342773 24.57104492 C-26.93169029 14.92784078 -15.96152868 8.246855 -6.99780273 2.28198242 C-6.11737305 1.65163086 -5.23694336 1.0212793 -4.32983398 0.37182617 C-1.99780273 -0.71801758 -1.99780273 -0.71801758 0 0 Z " fill="#F2472B" transform="translate(272.997802734375,262.718017578125)"/>
<path d="M0 0 C6.75 1.875 6.75 1.875 9 3 C9 3.66 9 4.32 9 5 C9.66 5 10.32 5 11 5 C22.57240266 17.89803392 29.09696314 40.25528338 28.3828125 57.37109375 C27.75046019 61.71367647 26.59400723 65.42818942 24 69 C20.9924013 70.95843636 19.33471556 71.26358835 15.82421875 70.5703125 C10.99621851 69.12596957 6.9422611 67.13359216 3 64 C3 63.34 3 62.68 3 62 C2.34 62 1.68 62 1 62 C-8.53656462 50.96483236 -10.71950422 37.10228275 -10 23 C-8.86683287 13.93466296 -6.14352136 6.80768584 0 0 Z " fill="#FC9D06" transform="translate(163,134)"/>
<path d="M0 0 C0.66 0 1.32 0 2 0 C2 0.66 2 1.32 2 2 C3.98 1.67 5.96 1.34 8 1 C9.39095642 3.78191283 9.05943811 6.00159495 8.9921875 9.109375 C8.97542969 10.33914063 8.95867187 11.56890625 8.94140625 12.8359375 C8.89739797 15.42983708 8.84541098 18.02361446 8.78515625 20.6171875 C8.77097656 21.85210937 8.75679688 23.08703125 8.7421875 24.359375 C8.7201123 25.48827148 8.69803711 26.61716797 8.67529297 27.78027344 C9.04320609 31.42842247 10.34225829 33.76652097 12 37 C11.67 37.99 11.34 38.98 11 40 C8.03122326 37.84088964 7.12335606 35.21135227 6.34375 31.703125 C5.18434738 22.58600437 5.70464947 13.06745368 7 4 C6.01 3.67 5.02 3.34 4 3 C2.3088754 14.810596 0.43905797 30.01542314 6 41 C6.79470703 42.051875 6.79470703 42.051875 7.60546875 43.125 C9 45 9 45 9 47 C-1.23 47 -11.46 47 -22 47 C-21.505 44.03 -21.505 44.03 -21 41 C-20.25012834 30.12686088 -21.88034298 19.74806508 -23.72460938 9.06787109 C-24 7 -24 7 -24 3 C-23.34 3 -22.68 3 -22 3 C-20.25544201 6.48911599 -20.53762734 10.49741795 -20.28125 14.34765625 C-20.28948002 16.92005405 -20.28948002 16.92005405 -19 18 C-18.91241997 19.99964982 -18.89303424 22.0023611 -18.90234375 24.00390625 C-18.90556641 25.21884766 -18.90878906 26.43378906 -18.91210938 27.68554688 C-18.92048828 28.96494141 -18.92886719 30.24433594 -18.9375 31.5625 C-18.94201172 32.84576172 -18.94652344 34.12902344 -18.95117188 35.45117188 C-18.96300445 38.6341342 -18.98094056 41.81707274 -19 45 C-11.08 45 -3.16 45 5 45 C4.34 44.34 3.68 43.68 3 43 C2.39286197 41.14516546 1.85868948 39.26578615 1.375 37.375 C1.11460937 36.37210937 0.85421875 35.36921875 0.5859375 34.3359375 C0.39257812 33.56507813 0.19921875 32.79421875 0 32 C-1.32 31.67 -2.64 31.34 -4 31 C-3.01 30.67 -2.02 30.34 -1 30 C-1.01160156 28.71222656 -1.02320313 27.42445313 -1.03515625 26.09765625 C-1.0445327 24.41927228 -1.05363305 22.74088674 -1.0625 21.0625 C-1.07087891 20.21236328 -1.07925781 19.36222656 -1.08789062 18.48632812 C-1.09272461 17.27299805 -1.09272461 17.27299805 -1.09765625 16.03515625 C-1.10551147 14.91185913 -1.10551147 14.91185913 -1.11352539 13.76586914 C-1 12 -1 12 0 11 C0.07226502 9.14712498 0.0838122 7.29166122 0.0625 5.4375 C0.05347656 4.42558594 0.04445313 3.41367187 0.03515625 2.37109375 C0.02355469 1.58863281 0.01195312 0.80617188 0 0 Z " fill="#E15C55" transform="translate(324,307)"/>
<path d="M0 0 C0.66 0 1.32 0 2 0 C2.29132813 1.12277344 2.58265625 2.24554688 2.8828125 3.40234375 C5.15478717 11.81174689 7.33154478 19.16279112 13 26 C12.67 26.66 12.34 27.32 12 28 C8.72653393 24.90347804 6.02490044 22.04980088 4 18 C4 17.01 4 16.02 4 15 C2.02 15.33 0.04 15.66 -2 16 C-3.01445318 31.92474191 -3.11988451 47.79710552 -3.0625 63.75 C-3.05746972 66.21223866 -3.05290955 68.67447833 -3.04882812 71.13671875 C-3.03795562 77.0911683 -3.02134114 83.04557923 -3 89 C-3.33 89 -3.66 89 -4 89 C-8.38285406 59.33746988 -7.07936056 29.07349043 0 0 Z " fill="#F3C05F" transform="translate(147,170)"/>
<path d="M0 0 C0.66 0 1.32 0 2 0 C1.51792253 3.77627353 0.91579173 7.3872131 -0.03125 11.07421875 C-1.22353525 16.36681529 -1.22419952 21.47244153 -1.125 26.875 C-1.11597656 27.81085938 -1.10695312 28.74671875 -1.09765625 29.7109375 C-1.08034488 31.4321821 -1.05889392 33.15339428 -1.03173828 34.87451172 C-1.00622898 36.58285012 -1 38.29147115 -1 40 C-10.9 40 -20.8 40 -31 40 C-30.01 37.03 -29.02 34.06 -28 31 C-27.57287398 29.33083455 -27.17446956 27.65341887 -26.83203125 25.96484375 C-26.66123047 25.13662109 -26.49042969 24.30839844 -26.31445312 23.45507812 C-26.14880859 22.62427734 -25.98316406 21.79347656 -25.8125 20.9375 C-25.63525391 20.07189453 -25.45800781 19.20628906 -25.27539062 18.31445312 C-24.84532887 16.2106375 -24.42194832 14.10545788 -24 12 C-23.67 12 -23.34 12 -23 12 C-22.80587819 13.47831221 -22.61987869 14.95769316 -22.4375 16.4375 C-22.33308594 17.26121094 -22.22867188 18.08492188 -22.12109375 18.93359375 C-22.08113281 19.61550781 -22.04117188 20.29742187 -22 21 C-22.33 21.33 -22.66 21.66 -23 22 C-23.56225363 24.51994503 -24.07936818 27.02757515 -24.5625 29.5625 C-25.036875 32.016875 -25.51125 34.47125 -26 37 C-19.07 37 -12.14 37 -5 37 C-5 33.7 -5 30.4 -5 27 C-4.86225311 24.45660207 -4.6991629 21.91432695 -4.5 19.375 C-4.36078125 17.56128906 -4.36078125 17.56128906 -4.21875 15.7109375 C-4.1465625 14.81632812 -4.074375 13.92171875 -4 13 C-3.34 13 -2.68 13 -2 13 C-2.04125 11.96875 -2.0825 10.9375 -2.125 9.875 C-2.00424851 6.13170373 -1.35127982 3.46265453 0 0 Z " fill="#F0841D" transform="translate(217,314)"/>
<path d="M0 0 C0.99 0.33 1.98 0.66 3 1 C3 1.66 3 2.32 3 3 C3.58265625 3.2578125 4.1653125 3.515625 4.765625 3.78125 C7.1802903 5.09834017 8.81740177 6.55088384 10.75 8.5 C11.36359375 9.1084375 11.9771875 9.716875 12.609375 10.34375 C14 12 14 12 14 14 C14.66 14 15.32 14 16 14 C16 14.66 16 15.32 16 16 C16.66 16 17.32 16 18 16 C19.625 18 19.625 18 21 20 C19.50468495 23.9875068 17.28445287 25.35837718 13.6875 27.5 C10.7109557 29.28673873 7.96688444 31.02690935 5.26953125 33.21875 C3 35 3 35 1 35 C1 35.66 1 36.32 1 37 C-0.485 37.495 -0.485 37.495 -2 38 C-2 37.34 -2 36.68 -2 36 C-1.34 36 -0.68 36 0 36 C0 35.34 0 34.68 0 34 C0.66 34 1.32 34 2 34 C2.4021875 33.0409375 2.4021875 33.0409375 2.8125 32.0625 C4 30 4 30 7 29 C6.67 28.34 6.34 27.68 6 27 C5.03262754 24.36171148 4.83586422 23.39392586 5.9375 20.75 C6.288125 20.1725 6.63875 19.595 7 19 C7.66 19 8.32 19 9 19 C8.979375 18.05125 8.95875 17.1025 8.9375 16.125 C9 13 9 13 10 11 C9.34 11 8.68 11 8 11 C8 10.34 8 9.68 8 9 C5.525 8.01 5.525 8.01 3 7 C3 6.34 3 5.68 3 5 C2.34 5 1.68 5 1 5 C0.67 3.35 0.34 1.7 0 0 Z " fill="#FB860B" transform="translate(249,236)"/>
<path d="M0 0 C2 2 2 2 3.125 4.4375 C5.73483538 8.00427502 8.84136414 8.97614008 13 10 C18.10059797 10.51431991 23.20989891 10.48367149 28.33203125 10.52734375 C38.48589682 10.74392558 38.48589682 10.74392558 43 14 C46.52578542 18.71803078 45.51372415 25.44300831 45 31 C42.24014191 42.36663202 36.66599134 47.87284361 27 54 C21.52101172 57.19016878 14.4551781 61 8 61 C8.33 60.01 8.66 59.02 9 58 C10.97746603 57.26919734 12.98072489 56.60578253 15 56 C15.99 55.34 16.98 54.68 18 54 C20.6875 53.875 20.6875 53.875 23 54 C23 53.34 23 52.68 23 52 C23.99 52 24.98 52 26 52 C26 51.34 26 50.68 26 50 C28.97 49.505 28.97 49.505 32 49 C32 48.01 32 47.02 32 46 C32.99 46 33.98 46 35 46 C35 45.01 35 44.02 35 43 C35.66 42.67 36.32 42.34 37 42 C37.495 41.01 37.495 41.01 38 40 C38.99 40.495 38.99 40.495 40 41 C40.06058594 40.37351563 40.12117188 39.74703125 40.18359375 39.1015625 C40.26738281 38.28429687 40.35117187 37.46703125 40.4375 36.625 C40.51871094 35.81289062 40.59992188 35.00078125 40.68359375 34.1640625 C41 32 41 32 42 30 C42.35180022 27.2739775 42.35180022 27.2739775 42.4375 24.1875 C42.52837891 22.63095703 42.52837891 22.63095703 42.62109375 21.04296875 C41.93500123 17.6815469 40.93923301 15.98084582 38.15551758 13.93139648 C33.31089999 11.8380432 27.80952549 12.38465344 22.625 12.4375 C7.5179621 12.54354292 7.5179621 12.54354292 1 8 C0.01920509 5.15774521 0 3.06517272 0 0 Z " fill="#F3AB4B" transform="translate(220,129)"/>
<path d="M0 0 C0.33 0.66 0.66 1.32 1 2 C1.99 2.33 2.98 2.66 4 3 C4 3.66 4 4.32 4 5 C4.66 5 5.32 5 6 5 C6 5.66 6 6.32 6 7 C8.97 7 11.94 7 15 7 C14.9175 7.763125 14.835 8.52625 14.75 9.3125 C14.70833333 12.14583333 14.70833333 12.14583333 17 13.8125 C17.66 14.204375 18.32 14.59625 19 15 C17.625 17.5 17.625 17.5 16 20 C15.34 20 14.68 20 14 20 C13.67 20.66 13.34 21.32 13 22 C12.34 22 11.68 22 11 22 C11.061875 22.7425 11.12375 23.485 11.1875 24.25 C10.96905704 27.45383006 10.09749995 28.64031256 8 31 C7.67 30.01 7.34 29.02 7 28 C4.80540745 28.98378287 3.20335306 29.77896406 1.5625 31.5625 C-1.19893893 34.10302381 -4.38409114 34 -8 34 C-7.28714844 33.443125 -6.57429688 32.88625 -5.83984375 32.3125 C4.98678192 24.39449428 4.98678192 24.39449428 11 13 C8.69 11.68 6.38 10.36 4 9 C4 8.34 4 7.68 4 7 C3.401875 6.7525 2.80375 6.505 2.1875 6.25 C-0.28647521 4.83629988 -1.43370255 3.34944617 -3 1 C-2.01 0.67 -1.02 0.34 0 0 Z " fill="#F14926" transform="translate(285,225)"/>
<path d="M0 0 C2.98376565 2.07346426 4.81167741 4.26591648 6.84375 7.28125 C6.84375 7.94125 6.84375 8.60125 6.84375 9.28125 C6.18375 9.28125 5.52375 9.28125 4.84375 9.28125 C4.84375 8.62125 4.84375 7.96125 4.84375 7.28125 C4.18375 7.28125 3.52375 7.28125 2.84375 7.28125 C0.84375 5.28125 0.84375 5.28125 -0.15625 3.28125 C-2.13625 4.27125 -2.13625 4.27125 -4.15625 5.28125 C-4.15625 3.96125 -4.15625 2.64125 -4.15625 1.28125 C-9.76625 0.62125 -15.37625 -0.03875 -21.15625 -0.71875 C-21.15625 -0.05875 -21.15625 0.60125 -21.15625 1.28125 C-22.06117188 1.35472656 -22.06117188 1.35472656 -22.984375 1.4296875 C-23.78359375 1.50445312 -24.5828125 1.57921875 -25.40625 1.65625 C-26.19515625 1.72585937 -26.9840625 1.79546875 -27.796875 1.8671875 C-30.27710981 2.3024605 -32.01607375 2.96494691 -34.15625 4.28125 C-34.48625 4.94125 -34.81625 5.60125 -35.15625 6.28125 C-36.79988134 7.00284424 -38.46675386 7.67476421 -40.15625 8.28125 C-39.16625 8.94125 -38.17625 9.60125 -37.15625 10.28125 C-37.48625 11.60125 -37.81625 12.92125 -38.15625 14.28125 C-36.83625 14.61125 -35.51625 14.94125 -34.15625 15.28125 C-34.15625 15.94125 -34.15625 16.60125 -34.15625 17.28125 C-33.49625 17.28125 -32.83625 17.28125 -32.15625 17.28125 C-32.15625 18.27125 -32.15625 19.26125 -32.15625 20.28125 C-31.49625 20.28125 -30.83625 20.28125 -30.15625 20.28125 C-29.82625 22.26125 -29.49625 24.24125 -29.15625 26.28125 C-31.81782432 23.72613865 -34.21802374 21.03538616 -36.59375 18.21875 C-39.18846316 15.21581688 -41.53586824 13.03658661 -45.15625 11.28125 C-44.80712155 8.58132334 -44.43011928 7.5153263 -42.328125 5.71875 C-29.89452056 -1.66119586 -13.7655093 -7.19093769 0 0 Z " fill="#F4AF3B" transform="translate(213.15625,119.71875)"/>
<path d="M0 0 C0 2 0 2 -2 4.125 C-5.29646756 6.18529222 -7.18673079 6.21104915 -11.00390625 6.0234375 C-14.02018849 5.98802127 -16.29530396 6.71204951 -19 8 C-20.8378888 10.58975241 -21 11.78481903 -21 15 C-21.30588054 16.73423342 -21.64173036 18.46332735 -22 20.1875 C-22.185625 21.08855469 -22.37125 21.98960937 -22.5625 22.91796875 C-22.706875 23.60503906 -22.85125 24.29210937 -23 25 C-22.34 25 -21.68 25 -21 25 C-21 26.32 -21 27.64 -21 29 C-20.34 29.33 -19.68 29.66 -19 30 C-19.66 30.66 -20.32 31.32 -21 32 C-25.00513015 26.57607835 -27.39518545 21.86185637 -27 15 C-26.17382879 10.55441206 -24.76734317 7.76734317 -21.5625 4.5625 C-17.23134377 2.66287008 -13.49754208 2.42867188 -8.8046875 2.2734375 C-5.53316559 1.9544869 -3.16783077 0 0 0 Z " fill="#F25626" transform="translate(302,194)"/>
<path d="M0 0 C4.62471445 5.61572468 4.45021318 13.05834093 4 20 C3.44339113 24.02210408 2.75597261 28.01089451 2 32 C1.505 30.515 1.505 30.515 1 29 C0.34 28.67 -0.32 28.34 -1 28 C-0.50886719 27.05060547 -0.50886719 27.05060547 -0.0078125 26.08203125 C1.36144606 21.8946475 1.21471519 18.05939028 1.125 13.6875 C1.11597656 12.85154297 1.10695313 12.01558594 1.09765625 11.15429688 C1.07420989 9.10274031 1.03834266 7.05133223 1 5 C0.34 5 -0.32 5 -1 5 C-1.495 3.515 -1.495 3.515 -2 2 C-3.95494828 2.19866646 -3.95494828 2.19866646 -6 3 C-7.1667263 4.96614988 -7.8801051 6.95115489 -8.6796875 9.08984375 C-10.71713696 12.03751471 -12.5079517 12.25774744 -16 13 C-19.63049095 13.22054384 -23.2396306 13.18903767 -26.875 13.125 C-27.84953125 13.11597656 -28.8240625 13.10695312 -29.828125 13.09765625 C-32.21900728 13.07421623 -34.60937261 13.04140442 -37 13 C-37 13.66 -37 14.32 -37 15 C-38.98 15.33 -40.96 15.66 -43 16 C-41.59541526 13.19083053 -39.56973207 12.63049023 -36.71875 11.58203125 C-32.03640566 10.57963282 -27.34172739 11.00569231 -22.5859375 11.28515625 C-15.81633216 10.74683251 -11.67835345 5.91798822 -7.02734375 1.390625 C-4.48107807 -0.35594645 -3.02814426 -0.43044695 0 0 Z " fill="#E97A5F" transform="translate(345,178)"/>
<path d="M0 0 C0.66 0 1.32 0 2 0 C2 0.66 2 1.32 2 2 C3.98 1.67 5.96 1.34 8 1 C9.39095642 3.78191283 9.05943811 6.00159495 8.9921875 9.109375 C8.97542969 10.33914063 8.95867187 11.56890625 8.94140625 12.8359375 C8.89739797 15.42983708 8.84541098 18.02361446 8.78515625 20.6171875 C8.76388672 22.46957031 8.76388672 22.46957031 8.7421875 24.359375 C8.7201123 25.48827148 8.69803711 26.61716797 8.67529297 27.78027344 C9.04320609 31.42842247 10.34225829 33.76652097 12 37 C11.67 37.99 11.34 38.98 11 40 C8.03122326 37.84088964 7.12335606 35.21135227 6.34375 31.703125 C5.18434738 22.58600437 5.70464947 13.06745368 7 4 C6.01 3.67 5.02 3.34 4 3 C3.17349095 9.00087244 2.7209101 14.95082054 2.4375 21 C2.39431641 21.87011719 2.35113281 22.74023438 2.30664062 23.63671875 C2.20175782 25.75768219 2.10049925 27.87882433 2 30 C1.67 30 1.34 30 1 30 C0.67 20.1 0.34 10.2 0 0 Z " fill="#EA6F66" transform="translate(324,307)"/>
<path d="M0 0 C2.375 -0.125 2.375 -0.125 5 0 C7 2 7 2 7.046875 4.78515625 C6.94890625 5.86667969 6.8509375 6.94820313 6.75 8.0625 C6.66234375 9.14660156 6.5746875 10.23070312 6.484375 11.34765625 C6.24460938 12.66056641 6.24460938 12.66056641 6 14 C5.01 14.495 5.01 14.495 4 15 C4 10.71 4 6.42 4 2 C3.01 2 2.02 2 1 2 C0.87496094 3.20914062 0.74992188 4.41828125 0.62109375 5.6640625 C-0.07650353 11.92404791 -0.99949379 18.14719671 -1.9375 24.375 C-2.10701172 25.54933594 -2.27652344 26.72367187 -2.45117188 27.93359375 C-2.62068359 29.05636719 -2.79019531 30.17914063 -2.96484375 31.3359375 C-3.1155835 32.35220215 -3.26632324 33.3684668 -3.42163086 34.41552734 C-4 37 -4 37 -6 40 C-6 34.72 -6 29.44 -6 24 C-5.34 24 -4.68 24 -4 24 C-4.03480469 23.31035156 -4.06960937 22.62070312 -4.10546875 21.91015625 C-4.27292011 16.09720175 -3.85723997 11.40880863 -1.75390625 5.97265625 C-1.00061167 4.00160049 -0.47336385 2.05430718 0 0 Z " fill="#F2AB5A" transform="translate(195,280)"/>
<path d="M0 0 C4.2499167 2.37995335 7.37901384 4.86690643 10 9 C10.5 11.625 10.5 11.625 10 14 C8.1875 15.8125 8.1875 15.8125 6 17 C5.01 17 4.02 17 3 17 C3.66666667 14.33333333 4.33333333 11.66666667 5 9 C4.43410156 8.80664062 3.86820312 8.61328125 3.28515625 8.4140625 C2.55167969 8.15367187 1.81820313 7.89328125 1.0625 7.625 C-0.03384766 7.24214844 -0.03384766 7.24214844 -1.15234375 6.8515625 C-3 6 -3 6 -4 4 C-4.99 3.34 -5.98 2.68 -7 2 C-7.33 1.34 -7.66 0.68 -8 0 C-5.01770098 -1.49114951 -3.20107966 -0.80026992 0 0 Z " fill="#E53537" transform="translate(365,337)"/>
<path d="M0 0 C2.87180363 2.87180363 3.21346868 6.13994628 4 10 C4.18820312 10.88429688 4.37640625 11.76859375 4.5703125 12.6796875 C5.88426051 19.80461685 6.26470028 26.82795399 6.375 34.0625 C6.40094238 34.97926514 6.42688477 35.89603027 6.45361328 36.84057617 C6.47183485 43.3888008 6.47183485 43.3888008 3.9765625 46.62109375 C2.99816406 47.30365234 2.99816406 47.30365234 2 48 C1.01 47.67 0.02 47.34 -1 47 C-0.34 47 0.32 47 1 47 C1 46.01 1 45.02 1 44 C1.99 43.505 1.99 43.505 3 43 C3.02888146 39.68751813 3.04675799 36.37506833 3.0625 33.0625 C3.07087891 32.11697266 3.07925781 31.17144531 3.08789062 30.19726562 C3.09111328 29.29814453 3.09433594 28.39902344 3.09765625 27.47265625 C3.10551147 26.22367554 3.10551147 26.22367554 3.11352539 24.94946289 C3.21643292 22.99483202 3.21643292 22.99483202 2 22 C1.92820036 20.48071962 1.91607993 18.95832518 1.9375 17.4375 C1.94652344 16.61121094 1.95554687 15.78492188 1.96484375 14.93359375 C1.97644531 14.29550781 1.98804688 13.65742188 2 13 C1.34 12.67 0.68 12.34 0 12 C-1.03159626 8.90521121 -0.97482862 7.47368607 -0.5625 4.3125 C-0.46066406 3.50425781 -0.35882813 2.69601562 -0.25390625 1.86328125 C-0.17011719 1.24839844 -0.08632813 0.63351562 0 0 Z " fill="#E5867E" transform="translate(293,306)"/>
<path d="M0 0 C0.66 0 1.32 0 2 0 C2.29132813 1.12277344 2.58265625 2.24554688 2.8828125 3.40234375 C5.15478717 11.81174689 7.33154478 19.16279112 13 26 C12.67 26.66 12.34 27.32 12 28 C8.72653393 24.90347804 6.02490044 22.04980088 4 18 C4 17.01 4 16.02 4 15 C2.02 15.33 0.04 15.66 -2 16 C-2.2358396 10.22192976 -1.86783046 5.48675196 0 0 Z " fill="#F7A114" transform="translate(147,170)"/>
<path d="M0 0 C2 2 2 2 3.125 4.4375 C5.73483538 8.00427502 8.84136414 8.97614008 13 10 C18.10059797 10.51431991 23.20989891 10.48367149 28.33203125 10.52734375 C38.48589682 10.74392558 38.48589682 10.74392558 43 14 C45.55890335 17.3046409 45.20618148 20.69092623 45.125 24.75 C45.10695313 25.92046875 45.08890625 27.0909375 45.0703125 28.296875 C45.04710937 29.18890625 45.02390625 30.0809375 45 31 C44.67 31 44.34 31 44 31 C43.98582031 30.27554688 43.97164063 29.55109375 43.95703125 28.8046875 C43.62697677 22.11439397 42.96307326 18.59992156 38 14 C35.31344644 12.65672322 33.18512044 12.85568096 30.1796875 12.82421875 C29.0040625 12.80037109 27.8284375 12.77652344 26.6171875 12.75195312 C24.14600227 12.70939096 21.67459807 12.67792233 19.203125 12.65820312 C12.1112586 12.49210821 6.90713735 12.10899896 1 8 C0.02014696 5.15787917 0 3.06468466 0 0 Z " fill="#F9BF78" transform="translate(220,129)"/>
<path d="M0 0 C0.33 0 0.66 0 1 0 C3.22322492 10.08391302 5.23622315 20.72544345 0.25390625 30.2734375 C-1 32 -1 32 -3.6875 33.75 C-9.42558933 34.18306335 -14.1937067 32.5419577 -18.5625 28.8125 C-19.036875 28.214375 -19.51125 27.61625 -20 27 C-17.69 27 -15.38 27 -13 27 C-12.67 27.99 -12.34 28.98 -12 30 C-10.12612784 30.80212628 -10.12612784 30.80212628 -7.9375 31.1875 C-6.83728516 31.42533203 -6.83728516 31.42533203 -5.71484375 31.66796875 C-4.86599609 31.83232422 -4.86599609 31.83232422 -4 32 C-4 31.34 -4 30.68 -4 30 C-3.01 30 -2.02 30 -1 30 C-1.020625 29.195625 -1.04125 28.39125 -1.0625 27.5625 C-1 25 -1 25 0 24 C0.08726223 22.21928754 0.10699041 20.4351686 0.09765625 18.65234375 C0.09282227 17.03295898 0.09282227 17.03295898 0.08789062 15.38085938 C0.07951172 14.24455078 0.07113281 13.10824219 0.0625 11.9375 C0.05798828 10.79732422 0.05347656 9.65714844 0.04882812 8.48242188 C0.03699747 5.65489649 0.0205141 2.8274736 0 0 Z " fill="#F3C171" transform="translate(188,171)"/>
<path d="M0 0 C2.875 0.6875 2.875 0.6875 6 2 C7.25 4.5625 7.25 4.5625 8 7 C8.66 7.33 9.32 7.66 10 8 C10.4140625 10.06640625 10.4140625 10.06640625 10.625 12.5625 C10.69976562 13.38878906 10.77453125 14.21507812 10.8515625 15.06640625 C10.90054687 15.70449219 10.94953125 16.34257812 11 17 C11.66 17 12.32 17 13 17 C13 17.99 13 18.98 13 20 C13.66 20 14.32 20 15 20 C16.29243536 24.1196377 17.26252625 27.66831683 17 32 C14.69488325 29.69488325 14.13892015 27.98159907 13 24.9375 C10.06569095 17.65048477 6.0746693 11.09978266 2.01171875 4.39453125 C0 1 0 1 0 0 Z " fill="#E4765F" transform="translate(278,261)"/>
<path d="M0 0 C1.28567912 3.90018095 0.36603246 6.07545659 -1.1640625 9.8515625 C-3.59864478 16.1086665 -5.17581518 22.47255445 -3 29 C-1.35 29.33 0.3 29.66 2 30 C2 30.33 2 30.66 2 31 C-3.4180602 31.36120401 -3.4180602 31.36120401 -5.8125 29.875 C-7.50151615 27.20813239 -7.81483529 25.14780008 -8 22 C-7.37664397 19.98608051 -6.69971973 17.98867713 -6 16 C-5.23866502 12.014488 -4.61011628 8.01119004 -4 4 C-2.68 3.67 -1.36 3.34 0 3 C0 2.01 0 1.02 0 0 Z " fill="#E16662" transform="translate(356,305)"/>
<path d="M0 0 C1.65 0 3.3 0 5 0 C4.34 0.66 3.68 1.32 3 2 C3 11.38863395 9.3583163 20.14484297 14 28 C13.34 28.33 12.68 28.66 12 29 C12 28.34 12 27.68 12 27 C10.02 26.67 8.04 26.34 6 26 C6.226875 25.443125 6.45375 24.88625 6.6875 24.3125 C7.12380682 21.08382952 5.69120954 19.70593526 4 17 C4 15.68 4 14.36 4 13 C3.34 13 2.68 13 2 13 C-0.20914 9.68629 -0.22481553 8.6553979 -0.125 4.8125 C-0.10695312 3.91144531 -0.08890625 3.01039063 -0.0703125 2.08203125 C-0.04710937 1.39496094 -0.02390625 0.70789063 0 0 Z " fill="#F5AD3D" transform="translate(219,191)"/>
<path d="M0 0 C2 1 2 1 2.74609375 2.63891602 C2.97425781 3.33686279 3.20242188 4.03480957 3.4375 4.75390625 C3.69273437 5.52669922 3.94796875 6.29949219 4.2109375 7.09570312 C4.47132813 7.90974609 4.73171875 8.72378906 5 9.5625 C5.26039063 10.34947266 5.52078125 11.13644531 5.7890625 11.94726562 C10.35355476 25.9289048 10.35355476 25.9289048 10 33 C9.67 33 9.34 33 9 33 C8.33333333 31 7.66666667 29 7 27 C6.73574219 26.23042969 6.47148437 25.46085937 6.19921875 24.66796875 C5.92722656 23.87003906 5.65523438 23.07210937 5.375 22.25 C5.11460937 21.49203125 4.85421875 20.7340625 4.5859375 19.953125 C4 18 4 18 4 16 C3.34 16 2.68 16 2 16 C1.90912109 14.93458984 1.90912109 14.93458984 1.81640625 13.84765625 C1.73261719 12.92855469 1.64882813 12.00945312 1.5625 11.0625 C1.48128906 10.14597656 1.40007812 9.22945312 1.31640625 8.28515625 C1.23955024 6.03840268 1.23955024 6.03840268 0 5 C-0.04063832 3.33382885 -0.042721 1.66611905 0 0 Z " fill="#EA4A35" transform="translate(351,221)"/>
<path d="M0 0 C2.65491585 3.13762783 3.83161568 6.07756693 5 10 C5.33 10.99 5.66 11.98 6 13 C-1.26 13 -8.52 13 -16 13 C-16 12.67 -16 12.34 -16 12 C-11.05 11.67 -6.1 11.34 -1 11 C-1.020625 9.370625 -1.04125 7.74125 -1.0625 6.0625 C-1.08386068 4.37500659 -1.07205511 2.68608966 -1 1 C-0.67 0.67 -0.34 0.34 0 0 Z " fill="#EA3832" transform="translate(323,339)"/>
<path d="M0 0 C0 2.77996107 -0.21297929 5.42492567 -0.5 8.1875 C-0.5928125 9.08855469 -0.685625 9.98960937 -0.78125 10.91796875 C-0.88953125 11.94857422 -0.88953125 11.94857422 -1 13 C3.18276251 13.98852503 7.19713486 14.19673284 11.48828125 14.31640625 C12.19147995 14.33718735 12.89467865 14.35796844 13.6191864 14.37937927 C15.85019817 14.44440115 18.08132069 14.50353776 20.3125 14.5625 C21.83139134 14.60573036 23.35027177 14.64934605 24.86914062 14.69335938 C28.5793112 14.80003334 32.28960421 14.90143221 36 15 C36 15.33 36 15.66 36 16 C31.24946489 16.07435222 26.49927113 16.12869691 21.74829102 16.16479492 C20.13332211 16.17984876 18.51839387 16.20029648 16.90356445 16.22631836 C14.57753445 16.26285286 12.25204659 16.27976015 9.92578125 16.29296875 C8.84892815 16.31619453 8.84892815 16.31619453 7.75032043 16.33988953 C3.33225772 16.34136103 0.45745636 15.81919435 -3 13 C-4.0625 9.6875 -4.0625 9.6875 -4 6 C-2.0625 2.5625 -2.0625 2.5625 0 0 Z " fill="#F3BA7A" transform="translate(138,339)"/>
<path d="M0 0 C0.99 0 1.98 0 3 0 C3.02932572 3.18748029 3.04690739 6.37492528 3.0625 9.5625 C3.07087891 10.45775391 3.07925781 11.35300781 3.08789062 12.27539062 C3.10624865 17.28713246 3.02224572 22.0828687 2 27 C0.0625 28.9375 0.0625 28.9375 -2 30 C-2.66 30 -3.32 30 -4 30 C-2 24 -2 24 -0.9375 21.375 C0.26597256 17.04249878 0.21765115 13.09363634 0.125 8.625 C0.11146484 7.37783203 0.11146484 7.37783203 0.09765625 6.10546875 C0.0742622 4.07018663 0.03839725 2.03505436 0 0 Z " fill="#F3AA3E" transform="translate(194,177)"/>
<path d="M0 0 C0 3 0 3 -1 6 C-1.99 6.495 -1.99 6.495 -3 7 C-4.05589069 8.63183107 -5.0436126 10.30792999 -6 12 C-6.72890702 13.27098228 -7.45807904 14.54181261 -8.1875 15.8125 C-8.785625 16.864375 -9.38375 17.91625 -10 19 C-10.99 19 -11.98 19 -13 19 C-13.66 21.31 -14.32 23.62 -15 26 C-15.66 25.67 -16.32 25.34 -17 25 C-14.74648102 18.64917379 -11.3794608 12.1502459 -7 7 C-6.34 7 -5.68 7 -5 7 C-4.731875 6.401875 -4.46375 5.80375 -4.1875 5.1875 C-3.01506533 3.02775192 -1.80630718 1.64209744 0 0 Z " fill="#E96748" transform="translate(245,282)"/>
<path d="M0 0 C2 3.75 2 3.75 2 6 C1.34 6 0.68 6 0 6 C0.08378906 6.69867188 0.16757813 7.39734375 0.25390625 8.1171875 C0.35574219 9.02726562 0.45757812 9.93734375 0.5625 10.875 C0.66691406 11.77992188 0.77132812 12.68484375 0.87890625 13.6171875 C1 16 1 16 0 18 C-0.66 18 -1.32 18 -2 18 C-1.52269916 27.19838236 -1.52269916 27.19838236 1 36 C0.34 36 -0.32 36 -1 36 C-3.85072273 31.21433075 -4.30584967 28.02371377 -3.875 22.5 C-3.822229 21.81164062 -3.76945801 21.12328125 -3.71508789 20.4140625 C-3.10415343 13.47371987 -1.67922138 6.75913009 0 0 Z " fill="#E77E62" transform="translate(223,317)"/>
<path d="M0 0 C2.4375 0.5625 2.4375 0.5625 4.1875 2.6875 C8.34893404 12.2587983 6.31223907 22.66990364 4.4375 32.5625 C4.1075 31.5725 3.7775 30.5825 3.4375 29.5625 C2.7775 29.2325 2.1175 28.9025 1.4375 28.5625 C1.76492188 27.92957031 2.09234375 27.29664063 2.4296875 26.64453125 C3.79894606 22.4571475 3.65221519 18.62189028 3.5625 14.25 C3.55347656 13.41404297 3.54445313 12.57808594 3.53515625 11.71679688 C3.51170989 9.66524031 3.47584266 7.61383223 3.4375 5.5625 C2.7775 5.5625 2.1175 5.5625 1.4375 5.5625 C1.1075 4.5725 0.7775 3.5825 0.4375 2.5625 C-1.8725 3.2225 -4.1825 3.8825 -6.5625 4.5625 C-4.4596062 2.07018142 -3.23294692 0.70967127 0 0 Z " fill="#E7836B" transform="translate(342.5625,177.4375)"/>
<path d="M0 0 C2.96175123 0.61277612 4.38058783 1.25372522 7 3 C6.67 4.32 6.34 5.64 6 7 C7.32 7.33 8.64 7.66 10 8 C10 8.66 10 9.32 10 10 C10.66 10 11.32 10 12 10 C12 10.99 12 11.98 12 13 C12.66 13 13.32 13 14 13 C14.33 14.98 14.66 16.96 15 19 C12.33842568 16.44488865 9.93822626 13.75413616 7.5625 10.9375 C4.96778684 7.93456688 2.62038176 5.75533661 -1 4 C-0.67 2.68 -0.34 1.36 0 0 Z " fill="#F2B342" transform="translate(169,127)"/>
<path d="M0 0 C0.33 0 0.66 0 1 0 C1.33 6.27 1.66 12.54 2 19 C1.34 19.33 0.68 19.66 0 20 C-0.68729254 22.11846285 -0.68729254 22.11846285 -1.125 24.5625 C-1.29257813 25.38878906 -1.46015625 26.21507812 -1.6328125 27.06640625 C-1.75398437 27.70449219 -1.87515625 28.34257812 -2 29 C-2.66 29 -3.32 29 -4 29 C-2.83007154 19.30452907 -1.55220235 9.6434699 0 0 Z " fill="#F39634" transform="translate(198,295)"/>
<path d="M0 0 C-0.51385254 0.67204468 -0.51385254 0.67204468 -1.03808594 1.35766602 C-2.61308487 3.42265871 -4.18155896 5.49252258 -5.75 7.5625 C-6.55824219 8.61920898 -6.55824219 8.61920898 -7.3828125 9.69726562 C-10.62104728 13.98200311 -13.44248912 18.27605394 -16 23 C-16.33 21.68 -16.66 20.36 -17 19 C-16.34 19 -15.68 19 -15 19 C-15 17.68 -15 16.36 -15 15 C-14.34 15 -13.68 15 -13 15 C-12.7834375 13.824375 -12.7834375 13.824375 -12.5625 12.625 C-12 10 -12 10 -11 8 C-10.34 8 -9.68 8 -9 8 C-8.34 6.68 -7.68 5.36 -7 4 C-6.34 4 -5.68 4 -5 4 C-5.33 2.68 -5.66 1.36 -6 0 C-2.25 -1.125 -2.25 -1.125 0 0 Z " fill="#F19C48" transform="translate(240,281)"/>
<path d="M0 0 C0.33 1.32 0.66 2.64 1 4 C0.01 4.33 -0.98 4.66 -2 5 C-1.01 5.33 -0.02 5.66 1 6 C1 7.65 1 9.3 1 11 C0.34 10.67 -0.32 10.34 -1 10 C-1 9.34 -1 8.68 -1 8 C-3.19459255 8.98378287 -4.79664694 9.77896406 -6.4375 11.5625 C-9.19893893 14.10302381 -12.38409114 14 -16 14 C-15.26394531 13.40832031 -14.52789062 12.81664062 -13.76953125 12.20703125 C-12.79371094 11.41683594 -11.81789063 10.62664062 -10.8125 9.8125 C-9.36810547 8.64654297 -9.36810547 8.64654297 -7.89453125 7.45703125 C-5.09649579 5.08191073 -2.5544533 2.62917223 0 0 Z " fill="#EE4F2D" transform="translate(293,245)"/>
<path d="M0 0 C0.33 0 0.66 0 1 0 C0.99476318 0.55872803 0.98952637 1.11745605 0.98413086 1.69311523 C0.96308281 4.27456494 0.95025266 6.85599649 0.9375 9.4375 C0.92912109 10.31599609 0.92074219 11.19449219 0.91210938 12.09960938 C0.89328237 17.2017285 1.15369372 22.06997983 1.97875977 27.10961914 C2 29 2 29 0 32 C-2.70776842 21.0722203 -2.70776842 10.9277797 0 0 Z " fill="#F4B954" transform="translate(155,147)"/>
<path d="M0 0 C0.33 0.66 0.66 1.32 1 2 C1.99 2.33 2.98 2.66 4 3 C4 3.66 4 4.32 4 5 C4.66 5 5.32 5 6 5 C6 5.66 6 6.32 6 7 C7.65 7.33 9.3 7.66 11 8 C11 8.66 11 9.32 11 10 C11.66 10 12.32 10 13 10 C13 12.31 13 14.62 13 17 C12.34 17 11.68 17 11 17 C11 15.68 11 14.36 11 13 C7.535 11.02 7.535 11.02 4 9 C4 8.34 4 7.68 4 7 C3.401875 6.7525 2.80375 6.505 2.1875 6.25 C-0.28647521 4.83629988 -1.43370255 3.34944617 -3 1 C-2.01 0.67 -1.02 0.34 0 0 Z " fill="#EA735D" transform="translate(285,225)"/>
<path d="M0 0 C0 0.33 0 0.66 0 1 C-0.92683594 1.04898438 -1.85367188 1.09796875 -2.80859375 1.1484375 C-4.00613281 1.22320312 -5.20367187 1.29796875 -6.4375 1.375 C-8.22994141 1.47941406 -8.22994141 1.47941406 -10.05859375 1.5859375 C-11.02925781 1.72257812 -11.99992187 1.85921875 -13 2 C-13.33 2.66 -13.66 3.32 -14 4 C-15.92578125 4.34375 -15.92578125 4.34375 -18.3125 4.5 C-21.68682702 4.723096 -24.09859448 5.20663676 -27 7 C-27.33 7.66 -27.66 8.32 -28 9 C-30.32156597 9.40729228 -32.6568787 9.74438677 -35 10 C-26.57470027 -0.25688663 -12.08407018 -0.30549616 0 0 Z " fill="#F5C25D" transform="translate(206,117)"/>
<path d="M0 0 C0.99 0.66 1.98 1.32 3 2 C1.50468495 5.9875068 -0.71554713 7.35837718 -4.3125 9.5 C-7.2890443 11.28673873 -10.03311556 13.02690935 -12.73046875 15.21875 C-15 17 -15 17 -17 17 C-17 17.66 -17 18.32 -17 19 C-17.99 19.33 -18.98 19.66 -20 20 C-20 19.34 -20 18.68 -20 18 C-19.34 18 -18.68 18 -18 18 C-18 17.34 -18 16.68 -18 16 C-17.34 16 -16.68 16 -16 16 C-15.79375 15.38125 -15.5875 14.7625 -15.375 14.125 C-13.45224112 11.15346355 -11.33405473 10.86975341 -8 10 C-8 8.68 -8 7.36 -8 6 C-6.576875 5.9071875 -6.576875 5.9071875 -5.125 5.8125 C-4.09375 5.544375 -3.0625 5.27625 -2 5 C-0.54708727 2.53744315 -0.54708727 2.53744315 0 0 Z " fill="#EEA14A" transform="translate(267,254)"/>
<path d="M0 0 C0.47308594 0.38671875 0.94617188 0.7734375 1.43359375 1.171875 C9.07082386 7.18637981 16.04967573 11.16055407 26 10 C27.33948385 9.692312 28.67530324 9.36615214 30 9 C29.67 9.99 29.34 10.98 29 12 C20.37603795 12.48661855 13.76199333 11.92480024 6 8 C6 7.34 6 6.68 6 6 C3.03 5.505 3.03 5.505 0 5 C0 3.35 0 1.7 0 0 Z " fill="#F5B658" transform="translate(160,198)"/>
<path d="M0 0 C5.40921026 5.40921026 4.58536725 15.84212939 5 23 C4.01 22.67 3.02 22.34 2 22 C2 19.03 2 16.06 2 13 C1.34 12.67 0.68 12.34 0 12 C-1.03159626 8.90521121 -0.97482862 7.47368607 -0.5625 4.3125 C-0.46066406 3.50425781 -0.35882813 2.69601562 -0.25390625 1.86328125 C-0.17011719 1.24839844 -0.08632813 0.63351562 0 0 Z " fill="#E16454" transform="translate(293,306)"/>
<path d="M0 0 C2.31 0.33 4.62 0.66 7 1 C7 1.66 7 2.32 7 3 C7.66 3 8.32 3 9 3 C9 3.66 9 4.32 9 5 C16.59 5.33 24.18 5.66 32 6 C32 6.33 32 6.66 32 7 C28.52112528 7.11766716 25.0427723 7.18773315 21.5625 7.25 C20.58861328 7.28351563 19.61472656 7.31703125 18.61132812 7.3515625 C12.14711758 7.43804023 6.43380118 6.7946298 1 3 C0.67 2.01 0.34 1.02 0 0 Z " fill="#EB8686" transform="translate(336,348)"/>
<path d="M0 0 C0.66 0.33 1.32 0.66 2 1 C0.8125 2.9375 0.8125 2.9375 -1 5 C-1.845625 5.165 -2.69125 5.33 -3.5625 5.5 C-4.366875 5.665 -5.17125 5.83 -6 6 C-6.6837045 7.32467746 -7.34964186 8.65863633 -8 10 C-9.66666667 10.66666667 -11.33333333 11.33333333 -13 12 C-13.33 12.680625 -13.66 13.36125 -14 14.0625 C-14.33 14.701875 -14.66 15.34125 -15 16 C-17.625 16.75 -17.625 16.75 -20 17 C-14.5848696 9.6736471 -7.44427445 5.06822521 0 0 Z " fill="#E6684A" transform="translate(266,265)"/>
<path d="M0 0 C0 2 0 2 -1.98046875 4.109375 C-5.94260359 6.59019423 -8.75456581 6.46180749 -13.3125 6.25 C-14.42334961 6.22292969 -14.42334961 6.22292969 -15.55664062 6.1953125 C-17.3716571 6.14847337 -19.18600166 6.07673789 -21 6 C-21 6.99 -21 7.98 -21 9 C-21.99 9 -22.98 9 -24 9 C-23.06766848 6.6691712 -22.43352827 5.28040132 -20.296875 3.8984375 C-16.58612911 2.44695527 -12.82087076 2.54104354 -8.875 2.34375 C-5.61760357 1.95427869 -3.16679011 0 0 0 Z " fill="#E98969" transform="translate(302,194)"/>
<path d="M0 0 C0.66 0 1.32 0 2 0 C2.03738281 1.22976563 2.07476562 2.45953125 2.11328125 3.7265625 C2.17897028 5.35940401 2.24541659 6.99221518 2.3125 8.625 C2.33505859 9.43324219 2.35761719 10.24148438 2.38085938 11.07421875 C2.60868564 16.1692424 3.55578854 19.44021056 6 24 C5.67 24.99 5.34 25.98 5 27 C2.04173978 24.84853802 1.1355207 22.23005363 0.33984375 18.73828125 C-0.4298825 12.53623407 -0.13623903 6.23672018 0 0 Z " fill="#E17D79" transform="translate(330,320)"/>
<path d="M0 0 C3.37227049 1.39367924 4.90493713 2.84275299 6.8125 5.9375 C7.25207031 6.62714844 7.69164062 7.31679688 8.14453125 8.02734375 C9 10 9 10 8 13 C5 13 5 13 3.3125 12 C1.2035 8.78628571 1.81385415 5.78496571 2 2 C0.35 2.33 -1.3 2.66 -3 3 C-2.01 2.01 -1.02 1.02 0 0 Z " fill="#E97659" transform="translate(271,262)"/>
<path d="M0 0 C4.83516484 4.23076923 4.83516484 4.23076923 5.5625 7.625 C5 10 5 10 3.1875 11.8125 C1 13 1 13 -2 13 C-1.855625 12.484375 -1.71125 11.96875 -1.5625 11.4375 C-0.69682071 7.68622308 0 3.85745596 0 0 Z " fill="#E24949" transform="translate(370,341)"/>
<path d="M0 0 C1 4 1 4 0 7 C12.87 7.495 12.87 7.495 26 8 C26.33 7.34 26.66 6.68 27 6 C27 6.99 27 7.98 27 9 C17.1 9 7.2 9 -3 9 C-2.01 6.03 -1.02 3.06 0 0 Z " fill="#F7B676" transform="translate(189,345)"/>
<path d="M0 0 C0.66 0 1.32 0 2 0 C1.52509696 3.72007379 0.95427919 7.1743106 0 10.8125 C-1.76746008 18.35718033 -1.68384237 26.2874179 -2 34 C-2.33 34 -2.66 34 -3 34 C-3.02727678 31.02076997 -3.04697128 28.04179621 -3.0625 25.0625 C-3.07087891 24.23169922 -3.07925781 23.40089844 -3.08789062 22.54492188 C-3.11821597 14.75130718 -2.82447744 7.34364135 0 0 Z " fill="#EEA762" transform="translate(217,314)"/>
<path d="M0 0 C1.98396975 3.96793951 0.57077404 9.12240788 0.1875 13.4375 C0.10435547 14.50033203 0.02121094 15.56316406 -0.06445312 16.65820312 C-0.15275391 17.67720703 -0.24105469 18.69621094 -0.33203125 19.74609375 C-0.45155151 21.14879517 -0.45155151 21.14879517 -0.57348633 22.57983398 C-1 25 -1 25 -3 28 C-3 22.72 -3 17.44 -3 12 C-2.34 12 -1.68 12 -1 12 C-1.01160156 11.21753906 -1.02320313 10.43507813 -1.03515625 9.62890625 C-1.04417969 8.61699219 -1.05320313 7.60507812 -1.0625 6.5625 C-1.07410156 5.55316406 -1.08570313 4.54382813 -1.09765625 3.50390625 C-1 1 -1 1 0 0 Z " fill="#F3A142" transform="translate(192,292)"/>
<path d="M0 0 C0.66 0.33 1.32 0.66 2 1 C1.01 2.65 0.02 4.3 -1 6 C-2.32 5.67 -3.64 5.34 -5 5 C-5.33 5.99 -5.66 6.98 -6 8 C-7.98248715 8.71706982 -9.98415349 9.38290413 -12 10 C-12.66 10.66 -13.32 11.32 -14 12 C-14.66 11.34 -15.32 10.68 -16 10 C-11.88135045 6.27992944 -5.79263039 2 0 2 C0 1.34 0 0.68 0 0 Z " fill="#F09634" transform="translate(155,328)"/>
<path d="M0 0 C0.66 0 1.32 0 2 0 C2.99 4.29 3.98 8.58 5 13 C4.01 12.67 3.02 12.34 2 12 C1.3125 9.9375 1.3125 9.9375 1 8 C0.34 8 -0.32 8 -1 8 C-1.33 9.32 -1.66 10.64 -2 12 C-1 3.42857143 -1 3.42857143 0 0 Z " fill="#F1B959" transform="translate(147,170)"/>
<path d="M0 0 C0.66 0.99 1.32 1.98 2 3 C1.34 3 0.68 3 0 3 C0 6.63 0 10.26 0 14 C0.66 14 1.32 14 2 14 C2 14.66 2 15.32 2 16 C2.66 16 3.32 16 4 16 C4 17.32 4 18.64 4 20 C4.66 20.33 5.32 20.66 6 21 C5.34 21.66 4.68 22.32 4 23 C-0.01778747 17.55893726 -2.27834327 12.87001791 -2 6 C-1.0625 2.4375 -1.0625 2.4375 0 0 Z " fill="#EA855C" transform="translate(277,203)"/>
<path d="M0 0 C0.99 0.33 1.98 0.66 3 1 C3 1.66 3 2.32 3 3 C3.556875 3.20625 4.11375 3.4125 4.6875 3.625 C7.92501302 5.55000774 9.68231141 8.03850902 12 11 C10.68 11 9.36 11 8 11 C8 10.34 8 9.68 8 9 C5.525 8.01 5.525 8.01 3 7 C3 6.34 3 5.68 3 5 C2.34 5 1.68 5 1 5 C0.67 3.35 0.34 1.7 0 0 Z " fill="#EFA751" transform="translate(249,236)"/>
<path d="M0 0 C2 2 2 2 3.125 4.4375 C5.45208821 7.61785388 7.39007718 8.19049731 11.0625 9.32421875 C13 10 13 10 16 12 C10.90056261 12.42495312 7.15463918 11.84783864 2.6015625 9.421875 C0.55670223 7.60643808 0.33307712 6.43364992 0 3.75 C0 2.5125 0 1.275 0 0 Z " fill="#F4B353" transform="translate(220,129)"/>
<path d="M0 0 C0.33 0 0.66 0 1 0 C1.22786458 1.98567708 1.45572917 3.97135417 1.68359375 5.95703125 C1.97170735 8.19396393 1.97170735 8.19396393 3 11 C4.65 11.33 6.3 11.66 8 12 C8 12.33 8 12.66 8 13 C2.5819398 13.36120401 2.5819398 13.36120401 0.1875 11.875 C-1.48108777 9.24038773 -1.81026737 7.09896635 -2 4 C-1.0625 1.625 -1.0625 1.625 0 0 Z " fill="#E15755" transform="translate(350,323)"/>
<path d="M0 0 C2.69100732 2.69100732 3.19748719 5.67048759 4.125 9.25 C4.30675781 9.90613281 4.48851562 10.56226563 4.67578125 11.23828125 C5.73647317 15.24977025 6.19297772 18.85741159 6 23 C5.67 23 5.34 23 5 23 C2.36582279 15.70535541 -0.31568175 7.82029795 0 0 Z " fill="#E6806F" transform="translate(355,231)"/>
<path d="M0 0 C0.33 0 0.66 0 1 0 C0.59248958 7.39139585 -0.58507186 13.99822721 -3 21 C-3.33 21 -3.66 21 -4 21 C-3.4618629 15.30948637 -2.8599867 9.65134116 -2 4 C-1.34 4 -0.68 4 0 4 C0 2.68 0 1.36 0 0 Z " fill="#DF6D5F" transform="translate(361,284)"/>
<path d="M0 0 C0.66 0 1.32 0 2 0 C2.50838564 2.03959477 3.00633886 4.08179138 3.5 6.125 C3.7784375 7.26195312 4.056875 8.39890625 4.34375 9.5703125 C4.96453765 12.81466698 5.12006768 15.70814457 5 19 C2.2574117 16.2574117 2.14687766 13.84002249 1.375 10.0625 C1.11460937 8.81597656 0.85421875 7.56945312 0.5859375 6.28515625 C0 3 0 3 0 0 Z " fill="#F2B244" transform="translate(144,259)"/>
<path d="M0 0 C0.33 0 0.66 0 1 0 C1.19412181 1.47831221 1.38012131 2.95769316 1.5625 4.4375 C1.66691406 5.26121094 1.77132812 6.08492188 1.87890625 6.93359375 C1.91886719 7.61550781 1.95882812 8.29742187 2 9 C1.67 9.33 1.34 9.66 1 10 C0.60851239 11.51165654 0.26027543 13.03469632 -0.0625 14.5625 C-0.23910156 15.38878906 -0.41570312 16.21507812 -0.59765625 17.06640625 C-0.73042969 17.70449219 -0.86320313 18.34257812 -1 19 C-1.66 19 -2.32 19 -3 19 C-2.27637073 12.60794144 -1.19656638 6.31972924 0 0 Z " fill="#F4A048" transform="translate(193,326)"/>
<path d="M0 0 C0.33 0 0.66 0 1 0 C1 5.61 1 11.22 1 17 C1.99 17.33 2.98 17.66 4 18 C4 19.65 4 21.3 4 23 C3.34 23.33 2.68 23.66 2 24 C-0.54748246 19.15577153 -0.22816428 14.50839624 -0.125 9.1875 C-0.11597656 8.30384766 -0.10695313 7.42019531 -0.09765625 6.50976562 C-0.07419637 4.33972641 -0.03832865 2.16982753 0 0 Z " fill="#E23831" transform="translate(332,319)"/>
<path d="M0 0 C2.96175123 0.61277612 4.38058783 1.25372522 7 3 C6.67 4.32 6.34 5.64 6 7 C1.25 5.125 1.25 5.125 -1 4 C-0.67 2.68 -0.34 1.36 0 0 Z " fill="#F4A528" transform="translate(169,127)"/>
<path d="M0 0 C0.33 0.99 0.66 1.98 1 3 C1.66 3 2.32 3 3 3 C3.144375 4.0725 3.28875 5.145 3.4375 6.25 C3.87954706 9.79185272 3.87954706 9.79185272 4.6875 12.3125 C4.790625 12.869375 4.89375 13.42625 5 14 C4.34 14.66 3.68 15.32 3 16 C2.30178583 13.89936424 1.61675528 11.79434263 0.9375 9.6875 C0.55464844 8.51574219 0.17179687 7.34398437 -0.22265625 6.13671875 C-1 3 -1 3 0 0 Z " fill="#E67663" transform="translate(296,293)"/>
<path d="M0 0 C2.875 1.5625 2.875 1.5625 5 3 C2.37684968 4.31157516 0.76966564 3.89649988 -2.125 3.5625 C-3.03507812 3.46066406 -3.94515625 3.35882813 -4.8828125 3.25390625 C-5.58148438 3.17011719 -6.28015625 3.08632813 -7 3 C-7.33 2.01 -7.66 1.02 -8 0 C-5.05401654 -1.47299173 -3.16265296 -0.74415364 0 0 Z " fill="#E55D60" transform="translate(365,337)"/>
<path d="M0 0 C2.78377547 2.40416972 4.01765406 4.44844158 5 8 C5.15883546 11.34066846 5.11679107 14.65847774 5 18 C3.31099986 14.89370844 2.29373333 11.84794949 1.375 8.4375 C1.11460937 7.48746094 0.85421875 6.53742188 0.5859375 5.55859375 C0 3 0 3 0 0 Z " fill="#F1A742" transform="translate(150,284)"/>
<path d="M0 0 C3.64003061 2.42668707 3.71160473 3.96302815 5 8 C5.66 8.33 6.32 8.66 7 9 C7 10.65 7 12.3 7 14 C3.66144681 11.00681438 1.72601391 8.14243338 0 4 C0 2.68 0 1.36 0 0 Z " fill="#F2B049" transform="translate(156,179)"/>
<path d="M0 0 C0.33 0 0.66 0 1 0 C1 1.98 1 3.96 1 6 C1.66 6 2.32 6 3 6 C3 8.64 3 11.28 3 14 C1.02 14.99 1.02 14.99 -1 16 C-0.9278125 15.43152344 -0.855625 14.86304688 -0.78125 14.27734375 C-0.20416899 9.47635032 0.10285838 4.83434373 0 0 Z " fill="#F2A54B" transform="translate(158,312)"/>
<path d="M0 0 C0.99 0 1.98 0 3 0 C3.304 9.12 3.304 9.12 1 12 C-1.125 12.75 -1.125 12.75 -3 13 C-2.67 12.01 -2.34 11.02 -2 10 C-1.01 10 -0.02 10 1 10 C1 7.69 1 5.38 1 3 C0.34 3 -0.32 3 -1 3 C-0.67 2.01 -0.34 1.02 0 0 Z " fill="#EB5433" transform="translate(297,232)"/>
<path d="M0 0 C4 6 4 6 8 12 C7.67 12.66 7.34 13.32 7 14 C0 7 0 7 -0.125 3.375 C-0.08375 2.26125 -0.0425 1.1475 0 0 Z " fill="#F5BB54" transform="translate(152,184)"/>
<path d="M0 0 C2.77834684 1.38917342 2.99642986 2.95763553 4.125 5.8125 C4.47820312 6.68519531 4.83140625 7.55789062 5.1953125 8.45703125 C6 11 6 11 6 15 C5.34 15 4.68 15 4 15 C2.24265549 10.02638346 0.67415387 5.2584002 0 0 Z " fill="#F3B151" transform="translate(181,153)"/>
<path d="M0 0 C2.475 0.99 2.475 0.99 5 2 C5.22786458 4.05078125 5.45572917 6.1015625 5.68359375 8.15234375 C5.81886614 10.01140229 5.81886614 10.01140229 7 11 C7.04063832 12.66617115 7.042721 14.33388095 7 16 C6.72414062 15.44570312 6.44828125 14.89140625 6.1640625 14.3203125 C5.35458166 12.70678358 4.53620153 11.09770115 3.7109375 9.4921875 C3.27007812 8.62851563 2.82921875 7.76484375 2.375 6.875 C1.70597656 5.57175781 1.70597656 5.57175781 1.0234375 4.2421875 C0 2 0 2 0 0 Z " fill="#F7BA56" transform="translate(184,147)"/>
<path d="M0 0 C0.33 0 0.66 0 1 0 C1 4.95 1 9.9 1 15 C0.34 15 -0.32 15 -1 15 C-1.33 15.66 -1.66 16.32 -2 17 C-1.34 11.39 -0.68 5.78 0 0 Z " fill="#F2AE5B" transform="translate(198,295)"/>
<path d="M0 0 C3.29148243 1.13499394 3.9959869 1.99283376 5.75 5.125 C6.1625 6.07375 6.575 7.0225 7 8 C6.01 8.495 6.01 8.495 5 9 C5 8.34 5 7.68 5 7 C2.03 6.505 2.03 6.505 -1 6 C-0.67 4.02 -0.34 2.04 0 0 Z " fill="#F6A235" transform="translate(226,211)"/>
<path d="M0 0 C0.66 0 1.32 0 2 0 C3.50156874 3.00313748 3.09281204 5.79067522 3.0625 9.125 C3.05347656 10.40632813 3.04445313 11.68765625 3.03515625 13.0078125 C3.02355469 13.99523437 3.01195312 14.98265625 3 16 C2.67 16 2.34 16 2 16 C1.34 10.72 0.68 5.44 0 0 Z " fill="#E27565" transform="translate(300,310)"/>
<path d="M0 0 C-2.31 2.97 -4.62 5.94 -7 9 C-7.33 7.68 -7.66 6.36 -8 5 C-7.01 4.67 -6.02 4.34 -5 4 C-5.33 2.68 -5.66 1.36 -6 0 C-2.25 -1.125 -2.25 -1.125 0 0 Z " fill="#F4A851" transform="translate(240,281)"/>
<path d="M0 0 C0.33 0 0.66 0 1 0 C1.02691685 2.45840605 1.04679802 4.91651882 1.0625 7.375 C1.07087891 8.07367188 1.07925781 8.77234375 1.08789062 9.4921875 C1.11328125 14.7734375 1.11328125 14.7734375 0 17 C-0.66 17 -1.32 17 -2 17 C-1.855625 16.05125 -1.71125 15.1025 -1.5625 14.125 C-0.88802722 9.43259653 -0.44623104 4.71865588 0 0 Z " fill="#EBA236" transform="translate(263,149)"/>
<path d="M0 0 C0.625 1.8125 0.625 1.8125 1 4 C0.01 5.485 0.01 5.485 -1 7 C-1.66 6.67 -2.32 6.34 -3 6 C-3 5.34 -3 4.68 -3 4 C-4.65 4.33 -6.3 4.66 -8 5 C-8 4.34 -8 3.68 -8 3 C-7.236875 2.87625 -6.47375 2.7525 -5.6875 2.625 C-2.79732864 2.11897208 -2.79732864 2.11897208 0 0 Z " fill="#EE392F" transform="translate(335,304)"/>
<path d="M0 0 C1.98 0.66 3.96 1.32 6 2 C6 4.64 6 7.28 6 10 C3.47650757 6.87567603 1.72743854 3.61939504 0 0 Z " fill="#EC8269" transform="translate(278,261)"/>
<path d="M0 0 C-1.20381448 2.49361571 -2.45428722 4.68143083 -4 7 C-4.99 7 -5.98 7 -7 7 C-6.22006468 2.47637516 -4.81844319 0 0 0 Z " fill="#E56644" transform="translate(338,182)"/>
<path d="M0 0 C1.14926266 0.95421808 2.29430541 1.91352045 3.4375 2.875 C4.07558594 3.40867188 4.71367187 3.94234375 5.37109375 4.4921875 C7 6 7 6 8 8 C5.125 7.6875 5.125 7.6875 2 7 C0 4 0 4 0 0 Z " fill="#F4A548" transform="translate(241,228)"/>
<path d="M0 0 C2 3.75 2 3.75 2 6 C1.34 6 0.68 6 0 6 C0.09539062 6.69867188 0.19078125 7.39734375 0.2890625 8.1171875 C0.39992187 9.02726562 0.51078125 9.93734375 0.625 10.875 C0.74101562 11.77992188 0.85703125 12.68484375 0.9765625 13.6171875 C0.98429688 14.40351563 0.99203125 15.18984375 1 16 C0.34 16.66 -0.32 17.32 -1 18 C-1.02707139 15.75006641 -1.04642829 13.50003905 -1.0625 11.25 C-1.07410156 9.99703125 -1.08570313 8.7440625 -1.09765625 7.453125 C-1.02021027 4.71463499 -0.82780815 2.58119707 0 0 Z " fill="#E5674B" transform="translate(223,317)"/>
<path d="M0 0 C0.99 0.33 1.98 0.66 3 1 C3.6875 3.0625 3.6875 3.0625 4 5 C2.35 5.33 0.7 5.66 -1 6 C-1.625 4.125 -1.625 4.125 -2 2 C-1.34 1.34 -0.68 0.68 0 0 Z " fill="#EB6845" transform="translate(276,269)"/>
<path d="M0 0 C0.33 0.66 0.66 1.32 1 2 C1.99 2.33 2.98 2.66 4 3 C4 3.66 4 4.32 4 5 C4.66 5.33 5.32 5.66 6 6 C3.75 6.3125 3.75 6.3125 1 6 C-1.3125 3.5 -1.3125 3.5 -3 1 C-2.01 0.67 -1.02 0.34 0 0 Z " fill="#E86348" transform="translate(285,225)"/>
<path d="M0 0 C1.32 0 2.64 0 4 0 C4 0.66 4 1.32 4 2 C5.32 2.66 6.64 3.32 8 4 C8 4.66 8 5.32 8 6 C5.69 5.34 3.38 4.68 1 4 C0.67 2.68 0.34 1.36 0 0 Z " fill="#F99E0A" transform="translate(152,194)"/>
<path d="M0 0 C2.67901932 2.31881505 3.66204403 4.31814468 4.6875 7.6875 C4.93886719 8.49574219 5.19023437 9.30398438 5.44921875 10.13671875 C5.63097656 10.75160156 5.81273437 11.36648438 6 12 C5.01 11.67 4.02 11.34 3 11 C2.67 8.69 2.34 6.38 2 4 C1.34 4 0.68 4 0 4 C0 2.68 0 1.36 0 0 Z " fill="#E78570" transform="translate(282,278)"/>
<path d="M0 0 C1.9668026 1.9668026 2.9371637 3.5444659 4.1875 6 C4.55230469 6.70125 4.91710937 7.4025 5.29296875 8.125 C5.52628906 8.74375 5.75960937 9.3625 6 10 C5.67 10.66 5.34 11.32 5 12 C2.69857565 10.21825212 1.19965609 8.83695835 0.51171875 5.953125 C0.27676898 3.9753389 0.13248542 1.98728128 0 0 Z " fill="#F2B461" transform="translate(222,200)"/>
<path d="M0 0 C0.33 0.99 0.66 1.98 1 3 C-3.625 7 -3.625 7 -7 7 C-7 6.34 -7 5.68 -7 5 C-6.34 5 -5.68 5 -5 5 C-5 4.34 -5 3.68 -5 3 C-2.5 1.375 -2.5 1.375 0 0 Z " fill="#F19A46" transform="translate(183,346)"/>
<path d="M0 0 C0 3 0 3 -1 6 C-3.5625 7.1875 -3.5625 7.1875 -6 8 C-6 8.66 -6 9.32 -6 10 C-6.66 9.67 -7.32 9.34 -8 9 C-7.67 8.34 -7.34 7.68 -7 7 C-6.34 7 -5.68 7 -5 7 C-4.731875 6.401875 -4.46375 5.80375 -4.1875 5.1875 C-3.01506533 3.02775192 -1.80630718 1.64209744 0 0 Z " fill="#E88B6E" transform="translate(245,282)"/>
<path d="M0 0 C2 2 2 2 2.125 5.125 C2.08375 6.07375 2.0425 7.0225 2 8 C2.66 8 3.32 8 4 8 C3.67 9.32 3.34 10.64 3 12 C3 11.34 3 10.68 3 10 C2.01 10 1.02 10 0 10 C0 6.7 0 3.4 0 0 Z " fill="#EA5C3F" transform="translate(280,274)"/>
<path d="M0 0 C0.33 1.32 0.66 2.64 1 4 C-0.98 5.32 -2.96 6.64 -5 8 C-5.66 7.67 -6.32 7.34 -7 7 C-4.69 4.69 -2.38 2.38 0 0 Z " fill="#E88960" transform="translate(293,245)"/>
<path d="M0 0 C2.31 0 4.62 0 7 0 C7.33 0.99 7.66 1.98 8 3 C8.66 3.66 9.32 4.32 10 5 C5.2482602 4.56802365 3.07999946 3.67230705 0 0 Z " fill="#F2AD3C" transform="translate(168,198)"/>
<path d="M0 0 C0.66 0.33 1.32 0.66 2 1 C0.9375 3.5 0.9375 3.5 -1 6 C-4.6875 6.3125 -4.6875 6.3125 -8 6 C-7.67 5.34 -7.34 4.68 -7 4 C-4.6859378 3.26924352 -2.35171131 2.59861742 0 2 C0 1.34 0 0.68 0 0 Z " fill="#F6A54F" transform="translate(155,328)"/>
<path d="M0 0 C1.98 0.99 1.98 0.99 4 2 C4 3.65 4 5.3 4 7 C3.01 7 2.02 7 1 7 C0.67 4.69 0.34 2.38 0 0 Z " fill="#E96243" transform="translate(284,267)"/>
<path d="M0 0 C0.33 1.32 0.66 2.64 1 4 C-4.625 6 -4.625 6 -8 6 C-5.36 4.02 -2.72 2.04 0 0 Z " fill="#E87B63" transform="translate(285,253)"/>
<path d="M0 0 C4.92307692 4.30769231 4.92307692 4.30769231 5.3125 7.8125 C5.209375 8.534375 5.10625 9.25625 5 10 C4.87625 9.071875 4.87625 9.071875 4.75 8.125 C4.18741541 5.81562433 4.18741541 5.81562433 1.9375 4.75 C1.298125 4.5025 0.65875 4.255 0 4 C0 2.68 0 1.36 0 0 Z " fill="#E9807E" transform="translate(370,341)"/>
<path d="M0 0 C3.0916909 2.52956528 3.90931332 5.22454612 5 9 C4.01 9.495 4.01 9.495 3 10 C0.70366176 6.55549263 0.45983515 4.06187717 0 0 Z " fill="#DC5C5D" transform="translate(331,337)"/>
<path d="M0 0 C-0.33 0.99 -0.66 1.98 -1 3 C-5.29 3 -9.58 3 -14 3 C-14 2.67 -14 2.34 -14 2 C-12.95199219 1.90912109 -12.95199219 1.90912109 -11.8828125 1.81640625 C-10.97273437 1.73261719 -10.06265625 1.64882812 -9.125 1.5625 C-8.22007812 1.48128906 -7.31515625 1.40007812 -6.3828125 1.31640625 C-3.9906624 0.99876009 -2.3900132 0 0 0 Z " fill="#E9A239" transform="translate(190,207)"/>
<path d="M0 0 C0.66 0.33 1.32 0.66 2 1 C1.34 1.66 0.68 2.32 0 3 C-0.69748583 4.31747324 -1.36959957 5.64914193 -2 7 C-3.32 6.34 -4.64 5.68 -6 5 C-4.68 4.34 -3.36 3.68 -2 3 C-2 2.34 -2 1.68 -2 1 C-1.34 0.67 -0.68 0.34 0 0 Z " fill="#EF542C" transform="translate(304,193)"/>
<path d="M0 0 C-3.50538557 1.96301592 -7.13351728 2.95902388 -11 4 C-10.67 3.01 -10.34 2.02 -10 1 C-6.59437148 0.22157062 -3.49234244 -0.09978121 0 0 Z " fill="#F2B86A" transform="translate(239,186)"/>
<path d="M0 0 C1 2 1 2 0.44140625 3.9453125 C0.15136719 4.66460937 -0.13867188 5.38390625 -0.4375 6.125 C-0.72496094 6.84945313 -1.01242188 7.57390625 -1.30859375 8.3203125 C-1.53675781 8.87460937 -1.76492187 9.42890625 -2 10 C-2.33 10 -2.66 10 -3 10 C-3 7.69 -3 5.38 -3 3 C-2.34 3 -1.68 3 -1 3 C-0.67 2.01 -0.34 1.02 0 0 Z " fill="#F1A24C" transform="translate(222,304)"/>
<path d="M0 0 C1 2 1 2 0.375 4.0625 C-1 6 -1 6 -3.625 6.75 C-4.800625 6.87375 -4.800625 6.87375 -6 7 C-4.02 4.69 -2.04 2.38 0 0 Z " fill="#E98B6B" transform="translate(252,275)"/>
<path d="M0 0 C1.98 0 3.96 0 6 0 C1.25 4.875 1.25 4.875 -1 6 C-1 5.01 -1 4.02 -1 3 C-0.01 3 0.98 3 2 3 C2 2.34 2 1.68 2 1 C1.34 0.67 0.68 0.34 0 0 Z " fill="#F3A34F" transform="translate(241,274)"/>
<path d="M0 0 C2 1 2 1 3.1875 3.3125 C4.03624754 6.11989571 3.99928333 7.301935 3 10 C0.59185923 6.48812804 -0.36629408 4.27343092 0 0 Z " fill="#E98671" transform="translate(351,221)"/>
<path d="M0 0 C0.99 0.33 1.98 0.66 3 1 C2.34 2.32 1.68 3.64 1 5 C-0.32 4.67 -1.64 4.34 -3 4 C-2.67 3.01 -2.34 2.02 -2 1 C-1.34 0.67 -0.68 0.34 0 0 Z " fill="#ED5128" transform="translate(341,179)"/>
<path d="M0 0 C6.75 1.875 6.75 1.875 9 3 C9 3.66 9 4.32 9 5 C7.68 4.67 6.36 4.34 5 4 C5 3.34 5 2.68 5 2 C3.02 2 1.04 2 -1 2 C-0.67 1.34 -0.34 0.68 0 0 Z " fill="#F3C259" transform="translate(163,134)"/>
<path d="M0 0 C0.66 1.32 1.32 2.64 2 4 C1.01 4.33 0.02 4.66 -1 5 C-1 6.65 -1 8.3 -1 10 C-1.66 10 -2.32 10 -3 10 C-2.05066101 6.64566891 -1.10251165 3.30753495 0 0 Z " fill="#E78468" transform="translate(227,307)"/>
<path d="M0 0 C0.66 0.33 1.32 0.66 2 1 C0.875 2.9375 0.875 2.9375 -1 5 C-4.1875 5.75 -4.1875 5.75 -7 6 C-4.74259377 3.66475218 -2.7194239 1.81294927 0 0 Z " fill="#E57657" transform="translate(266,265)"/>
<path d="M0 0 C0.99 0.495 0.99 0.495 2 1 C2 1.66 2 2.32 2 3 C2.66 3 3.32 3 4 3 C4 3.66 4 4.32 4 5 C4.66 5 5.32 5 6 5 C6 5.66 6 6.32 6 7 C4.35 6.67 2.7 6.34 1 6 C0.67 4.02 0.34 2.04 0 0 Z " fill="#F2AE5D" transform="translate(261,247)"/>
<path d="M0 0 C0.99 0.33 1.98 0.66 3 1 C3 2.32 3 3.64 3 5 C3.66 5.33 4.32 5.66 5 6 C4.34 6.66 3.68 7.32 3 8 C0.37613513 4.93882432 0 4.26826873 0 0 Z " fill="#E26E4B" transform="translate(278,218)"/>
<path d="M0 0 C0 0.66 0 1.32 0 2 C-1.62626404 3.38232443 -3.2925002 4.71937515 -5 6 C-5.66 5.34 -6.32 4.68 -7 4 C-3.17391304 0 -3.17391304 0 0 0 Z " fill="#EC7E5F" transform="translate(302,194)"/>
</svg>
